<?xml version="1.0" encoding="utf-8"?><svg xmlns="http://www.w3.org/2000/svg" xmlns:xlink="http://www.w3.org/1999/xlink"><symbol fill="none" viewBox="0 0 24 17" id="menu" xmlns="http://www.w3.org/2000/svg"><path stroke="#ED6F4F" stroke-width="3" stroke-linecap="round" d="M1.5 1.5h21"/><path stroke="#F8CB7B" stroke-width="3" stroke-linecap="round" d="M1.5 8.5h21"/><path stroke="#2CE77D" stroke-width="3" stroke-linecap="round" d="M1.5 15.5h21"/></symbol><symbol fill="none" viewBox="0 0 19 19" id="menu-close" xmlns="http://www.w3.org/2000/svg"><path stroke="#2CE77D" stroke-width="3" stroke-linecap="round" d="M2.121 2l14.85 14.849M2 16.849L16.849 2"/></symbol><symbol fill="none" viewBox="0 0 40 40" id="soc-1" xmlns="http://www.w3.org/2000/svg"><path d="M38 40H2c-1.1 0-2-.9-2-2V2C0 .9.9 0 2 0h36c1.1 0 2 .9 2 2v36c0 1.1-.9 2-2 2z" fill="#fff"/><path d="M31.2 20c0-6.2-5-11.2-11.2-11.2-6.2 0-11.2 5-11.2 11.2 0 5.6 4.1 10.2 9.4 11v-7.8h-2.8V20h2.8v-2.5c0-2.8 1.7-4.3 4.2-4.3 1.2 0 2.5.2 2.5.2v2.8h-1.3c-1.4 0-1.8.9-1.8 1.7V20h3.1l-.5 3.2h-2.6V31c5.3-.8 9.4-5.4 9.4-11z" fill="#003B6A"/></symbol><symbol fill="none" viewBox="0 0 40 40" id="soc-2" xmlns="http://www.w3.org/2000/svg"><path d="M38 40H2c-1.1 0-2-.9-2-2V2C0 .9.9 0 2 0h36c1.1 0 2 .9 2 2v36c0 1.1-.9 2-2 2z" fill="#fff"/><path d="M28.4 22.5c-1.8-1.8-1.6-1.5.6-4.5 1.3-1.8 1.8-3 1.7-3.5-.1-.3-1.1-.2-1.1-.2h-3.2s-.5 0-.7.3c-.3.7-.5 1.5-1.2 2.6-1.5 2.6-2 2.7-2.3 2.6-.5-.4-.4-1.5-.4-2.3 0-2.5.3-3.5-.7-3.8-.2-.1-.4-.1-.8-.1h-1.2c-1 0-1.7 0-2.2.3-.4.2-.7.6-.5.7.2 0 .7.2 1 .5.3.5.3 1.5.3 1.5s.2 3-.5 3.3c-.4.3-1-.3-2.3-2.6-.7-1.2-.7-2-1.2-2.5-.3-.3-.8-.5-.8-.5H9.8s-.5 0-.6.1c-.2.2 0 .6 0 .6s2.4 5.9 5.1 8.9c2.4 2.8 5.3 2.7 5.3 2.7s1.6.1 1.9-.3c.2-.2.2-.6.2-.6s0-1.8.8-2.1c.8-.3 1.8 1.8 2.9 2.5.8.6 1 .5 1.4.5h2.9s1.5-.2.8-1.4c-.1-.2-.4-1-2.1-2.7z" fill="#003B6A"/></symbol><symbol fill="none" viewBox="0 0 40 40" id="soc-3" xmlns="http://www.w3.org/2000/svg"><path d="M38 40H2c-1.1 0-2-.9-2-2V2C0 .9.9 0 2 0h36c1.1 0 2 .9 2 2v36c0 1.1-.9 2-2 2z" fill="#fff"/><path d="M31.2 14.3c-.3-1-1.1-1.8-2.1-2.1-1.8-.5-9.2-.5-9.2-.5s-7.3 0-9.2.5c-1 .3-1.8 1.1-2.1 2.1-.5 1.8-.5 5.6-.5 5.6s0 3.8.5 5.6c.3 1 1.1 1.8 2.1 2.1 1.8.5 9.2.5 9.2.5s7.3 0 9.2-.5c1-.3 1.8-1.1 2.1-2.1.5-1.8.5-5.6.5-5.6s0-3.8-.5-5.6z" stroke="#003B6A" stroke-width="1.4" stroke-miterlimit="10"/><path d="M17.6 23.4v-7l6.1 3.5-6.1 3.5z" fill="#003B6A"/></symbol><symbol fill="none" viewBox="0 0 40 40" id="soc-4" xmlns="http://www.w3.org/2000/svg"><path d="M38 40H2c-1.1 0-2-.9-2-2V2C0 .9.9 0 2 0h36c1.1 0 2 .9 2 2v36c0 1.1-.9 2-2 2z" fill="#fff"/><path d="M20 12.3c2.5 0 2.8 0 3.8.1.9 0 1.4.2 1.7.3.4.2.7.4 1.1.7.3.3.5.6.7 1.1.1.3.3.8.3 1.7 0 1 .1 1.3.1 3.8s0 2.8-.1 3.8c0 .9-.2 1.4-.3 1.7-.2.4-.4.7-.7 1.1-.3.3-.6.5-1.1.7-.3.1-.8.3-1.7.3-1 0-1.3.1-3.8.1s-2.8 0-3.8-.1c-.9 0-1.4-.2-1.7-.3-.4-.2-.7-.4-1.1-.7-.3-.3-.5-.6-.7-1.1-.1-.3-.3-.8-.3-1.7 0-1-.1-1.3-.1-3.8s0-2.8.1-3.8c0-.9.2-1.4.3-1.7.2-.4.4-.7.7-1.1.3-.3.6-.5 1.1-.7.3-.1.8-.3 1.7-.3 1-.1 1.3-.1 3.8-.1zm0-1.7c-2.5 0-2.9 0-3.9.1-1 0-1.7.2-2.3.4-.6.2-1.1.6-1.7 1.1-.5.5-.8 1-1.1 1.7-.2.6-.4 1.3-.4 2.3 0 1-.1 1.3-.1 3.9 0 2.5 0 2.9.1 3.9 0 1 .2 1.7.4 2.3.2.6.6 1.1 1.1 1.7.5.5 1 .8 1.7 1.1.6.2 1.3.4 2.3.4 1 0 1.3.1 3.9.1 2.5 0 2.9 0 3.9-.1 1 0 1.7-.2 2.3-.4.6-.2 1.1-.6 1.7-1.1.5-.5.8-1 1.1-1.7.2-.6.4-1.3.4-2.3 0-1 .1-1.3.1-3.9 0-2.6 0-2.9-.1-3.9 0-1-.2-1.7-.4-2.3-.2-.6-.6-1.1-1.1-1.7-.5-.5-1-.8-1.7-1.1-.6-.2-1.3-.4-2.3-.4-1-.1-1.3-.1-3.9-.1z" fill="#003B6A"/><path d="M20 15.2c-2.7 0-4.8 2.2-4.8 4.8 0 2.7 2.2 4.8 4.8 4.8 2.6 0 4.8-2.2 4.8-4.8 0-2.7-2.1-4.8-4.8-4.8zm0 7.9c-1.7 0-3.1-1.4-3.1-3.1 0-1.7 1.4-3.1 3.1-3.1 1.7 0 3.1 1.4 3.1 3.1.1 1.7-1.3 3.1-3.1 3.1zM25 16.1a1.1 1.1 0 100-2.2 1.1 1.1 0 000 2.2z" fill="#003B6A"/></symbol></svg>