<svg width="413" height="145" viewBox="0 0 413 145" fill="none" xmlns="http://www.w3.org/2000/svg">
<g clip-path="url(#clip0_301_4531)">
<path fill-rule="evenodd" clip-rule="evenodd" d="M67.9783 104.831C69.8676 105.19 70.8738 103.524 71.238 101.949L74.3337 88.6178C75.6266 86.0864 86.7667 76.4344 87.2902 74.1625C88.0278 70.9299 86.9169 64.5605 87.527 60.8134C88.5285 60.9728 89.8488 61.8651 90.7411 62.3751C92.1341 63.1627 92.685 63.6499 92.8125 65.4847C93.0356 68.8584 92.3299 73.0561 93.723 75.501C98.6807 76.8669 97.365 71.6948 97.2967 67.5654C97.1647 59.7162 98.6944 61.592 86.0838 54.5897C83.0199 52.8869 79.9106 55.3955 77.7982 56.8661C77.1972 59.7025 77.6889 67.9023 77.739 71.2896C77.8073 75.8425 78.0804 74.4766 72.3488 80.4409C69.7402 83.1726 69.3077 83.7144 68.7614 86.2094C67.7325 90.9353 65.998 97.0179 65.611 101.566C65.4562 103.387 65.784 104.421 67.9829 104.84L67.9783 104.831ZM90.3177 95.2377C92.0203 97.6735 94.9294 103.583 96.2132 104.198C97.4971 104.812 99.2224 104.466 99.9509 103.469C100.775 102.349 100.292 100.628 99.227 98.8163L87.3631 78.6061L83.0108 82.8949L90.3177 95.2377ZM67.0997 77.3039C68.1923 78.2737 69.6764 77.4269 70.5778 76.7485C71.2789 76.2204 74.7935 72.4551 75.2806 71.6356C76.0864 70.2698 75.6858 69.1224 75.6221 65.4847C74.7116 65.8262 67.9556 72.3777 67.1407 73.6799C66.5261 74.6633 65.998 76.3296 67.0906 77.2948L67.0997 77.3039ZM78.0895 44.1408C71.2607 46.3854 74.1334 56.5292 80.466 53.3649C82.5237 52.3314 85.0185 50.7652 84.5633 47.2413C84.1035 44.027 81.0214 43.1756 78.0804 44.1317L78.0895 44.1408Z" fill="white"/>
<path fill-rule="evenodd" clip-rule="evenodd" d="M78.9548 102.326H84.864L90.5729 145H73.7012L78.9548 102.326Z" fill="#4CB278"/>
<path fill-rule="evenodd" clip-rule="evenodd" d="M57.4261 102.326H62.8163L46.5683 141.276H31.167L57.4261 102.326Z" fill="#4CB278"/>
<path fill-rule="evenodd" clip-rule="evenodd" d="M48.812 91.5493L53.9245 93.4888L24.5196 124.58L9.91504 119.044L48.812 91.5493Z" fill="#4CB278"/>
<path fill-rule="evenodd" clip-rule="evenodd" d="M44.8335 79.5387L48.949 82.9761L11.7456 102.326L0 92.519L44.8335 79.5387Z" fill="#F8CB7B"/>
<path fill-rule="evenodd" clip-rule="evenodd" d="M45.2701 67.3689L47.6967 71.7123L9.04097 76.165L2.10742 63.7721L45.2701 67.3689Z" fill="#F8CB7B"/>
<path fill-rule="evenodd" clip-rule="evenodd" d="M50.925 52.7906L51.4804 57.7623L13.9264 46.8218L12.333 32.635L50.925 52.7906Z" fill="#F8CB7B"/>
<path fill-rule="evenodd" clip-rule="evenodd" d="M62.8704 41.8501L61.3635 46.3847L33.1787 21.8265L37.49 8.88269L62.8704 41.8501Z" fill="#F8CB7B"/>
<path fill-rule="evenodd" clip-rule="evenodd" d="M75.3857 37.0194L72.4766 40.3066L57.5215 9.38348L65.8344 0L75.3857 37.0194Z" fill="#ED6F4F"/>
<path fill-rule="evenodd" clip-rule="evenodd" d="M90.195 37.9164L86.6213 39.601L85.2373 8.71881L95.4441 3.91553L90.195 37.9164Z" fill="#ED6F4F"/>
<path fill-rule="evenodd" clip-rule="evenodd" d="M103.297 43.9581L99.8506 44.1356L108.96 18.726L118.798 18.2252L103.297 43.9581Z" fill="#ED6F4F"/>
<path fill-rule="evenodd" clip-rule="evenodd" d="M112.521 55.3129L109.594 54.1792L126.57 36.4685L134.92 39.6919L112.521 55.3129Z" fill="#ED6F4F"/>
<path fill-rule="evenodd" clip-rule="evenodd" d="M117.933 68.0883L116.208 66.1943L135.078 59.4561L140 64.8649L117.933 68.0883Z" fill="#ED6F4F"/>
<path fill-rule="evenodd" clip-rule="evenodd" d="M107.768 102.326H101.858L119.663 145H136.535L107.768 102.326Z" fill="#4CB278"/>
</g>
<g clip-path="url(#clip1_301_4531)">
<path d="M159 31.158V19.9581H163.483C164.191 19.9375 164.896 20.0631 165.553 20.3271C166.053 20.526 166.48 20.8731 166.777 21.3218C167.074 21.7705 167.227 22.2993 167.214 22.8372C167.221 23.2371 167.13 23.6327 166.95 23.9901C166.779 24.3153 166.53 24.5935 166.225 24.8004C165.909 25.014 165.556 25.166 165.184 25.2484V25.3538C165.608 25.3708 166.021 25.4955 166.384 25.7162C166.763 25.946 167.078 26.2678 167.3 26.6517C167.541 27.089 167.661 27.5823 167.649 28.0813C167.66 28.6423 167.506 29.1942 167.208 29.6691C166.888 30.1605 166.429 30.5457 165.889 30.7759C165.219 31.0636 164.495 31.2008 163.766 31.1778L159 31.158ZM161.373 24.6357H163.133C163.432 24.6395 163.729 24.5812 164.004 24.4644C164.244 24.356 164.451 24.1854 164.604 23.9703C164.758 23.7484 164.836 23.4827 164.828 23.2127C164.834 23.0275 164.799 22.8433 164.724 22.6735C164.65 22.5037 164.539 22.3525 164.399 22.2311C164.052 21.9612 163.618 21.8276 163.18 21.8555H161.373V24.6357ZM161.373 29.2475H163.311C163.822 29.291 164.333 29.1559 164.755 28.8653C164.904 28.7427 165.023 28.5873 165.102 28.4113C165.18 28.2353 165.218 28.0435 165.21 27.8508C165.217 27.5604 165.139 27.2743 164.986 27.0272C164.825 26.7808 164.596 26.5863 164.327 26.4672C164.019 26.3277 163.683 26.2601 163.344 26.2696H161.367L161.373 29.2475Z" fill="white"/>
<path d="M179.113 23.8649H176.707C176.671 23.5743 176.582 23.2928 176.443 23.0348C176.309 22.7986 176.132 22.5887 175.922 22.4155C175.701 22.2417 175.451 22.108 175.184 22.0202C174.897 21.9259 174.596 21.8791 174.294 21.8819C173.754 21.8674 173.222 22.0192 172.771 22.3167C172.322 22.6242 171.973 23.0573 171.769 23.5618C171.518 24.1898 171.397 24.8622 171.413 25.5383C171.393 26.2275 171.514 26.9135 171.769 27.5543C171.978 28.0544 172.329 28.4826 172.778 28.7863C173.225 29.0679 173.746 29.2123 174.274 29.2013C174.573 29.2051 174.871 29.1628 175.158 29.0762C175.422 28.9975 175.669 28.8726 175.889 28.7072C176.099 28.542 176.277 28.3413 176.417 28.1143C176.561 27.866 176.659 27.5937 176.707 27.3105H179.113C178.975 28.3756 178.458 29.3554 177.656 30.071C177.222 30.4582 176.719 30.76 176.173 30.9604C175.552 31.1871 174.895 31.2987 174.235 31.2898C173.298 31.3124 172.371 31.085 171.552 30.631C170.752 30.1656 170.104 29.4793 169.686 28.6545C169.214 27.6853 168.988 26.6153 169.027 25.5383C168.994 24.456 169.232 23.3827 169.719 22.4155C170.136 21.5876 170.787 20.9004 171.591 20.4391C172.397 19.9912 173.306 19.764 174.228 19.7802C174.843 19.7748 175.455 19.8682 176.041 20.0569C176.582 20.2263 177.085 20.4968 177.524 20.8541C177.96 21.2035 178.319 21.6385 178.579 22.1322C178.864 22.6712 179.045 23.259 179.113 23.8649V23.8649Z" fill="white"/>
<path d="M180.814 31.158V19.9581H188.383V21.9346H183.188V24.6094H187.994V26.5858H183.188V29.2672H188.402V31.2437L180.814 31.158Z" fill="white"/>
<path d="M190.274 31.1581V19.9582H194.705C195.459 19.9372 196.207 20.1048 196.88 20.4457C197.457 20.7407 197.934 21.199 198.251 21.7633C198.566 22.3745 198.731 23.0522 198.731 23.7398C198.731 24.4274 198.566 25.105 198.251 25.7162C197.927 26.2844 197.44 26.7431 196.854 27.0339C196.169 27.3672 195.413 27.53 194.652 27.5082H191.83V25.6108H194.269C194.662 25.6271 195.052 25.5432 195.403 25.3671C195.684 25.2186 195.914 24.989 196.063 24.7082C196.212 24.403 196.287 24.0665 196.28 23.7266C196.288 23.3888 196.213 23.0542 196.063 22.7515C195.916 22.469 195.686 22.2388 195.403 22.0927C195.047 21.925 194.656 21.8459 194.263 21.8621H192.661V31.1383L190.274 31.1581Z" fill="white"/>
<path d="M210.592 25.5778C210.625 26.6601 210.387 27.7334 209.9 28.7006C209.472 29.527 208.815 30.2131 208.008 30.6771C207.189 31.1267 206.266 31.3539 205.331 31.3359C204.394 31.3585 203.468 31.1311 202.648 30.6771C201.841 30.2147 201.186 29.5281 200.763 28.7006C200.311 27.7226 200.077 26.6583 200.077 25.5811C200.077 24.504 200.311 23.4396 200.763 22.4616C201.184 21.6328 201.84 20.9456 202.648 20.4851C203.471 20.04 204.392 19.8069 205.328 19.8069C206.264 19.8069 207.185 20.04 208.008 20.4851C208.817 20.9471 209.474 21.6337 209.9 22.4616C210.386 23.4268 210.624 24.4978 210.592 25.5778ZM208.186 25.5778C208.201 24.9018 208.08 24.2297 207.83 23.6014C207.626 23.1001 207.28 22.6695 206.834 22.3628C206.382 22.0869 205.862 21.941 205.331 21.941C204.801 21.941 204.281 22.0869 203.828 22.3628C203.382 22.6695 203.036 23.1001 202.833 23.6014C202.588 24.2311 202.47 24.9025 202.483 25.5778C202.468 26.2532 202.587 26.925 202.833 27.5543C203.035 28.0565 203.381 28.4876 203.828 28.7929C204.281 29.0687 204.801 29.2146 205.331 29.2146C205.862 29.2146 206.382 29.0687 206.834 28.7929C207.281 28.4876 207.628 28.0565 207.83 27.5543C208.081 26.9263 208.202 26.2539 208.186 25.5778V25.5778Z" fill="white"/>
<path d="M222.254 23.8648H219.848C219.813 23.5742 219.723 23.2928 219.585 23.0348C219.45 22.7985 219.273 22.5887 219.064 22.4155C218.844 22.243 218.597 22.1093 218.332 22.0202C218.042 21.9262 217.74 21.8795 217.435 21.8818C216.895 21.8674 216.364 22.0192 215.913 22.3166C215.463 22.6242 215.115 23.0573 214.91 23.5618C214.659 24.1898 214.538 24.8622 214.555 25.5383C214.533 26.227 214.651 26.913 214.904 27.5542C215.113 28.0544 215.463 28.4826 215.913 28.7862C216.36 29.0679 216.88 29.2122 217.409 29.2013C217.708 29.205 218.006 29.1628 218.292 29.0761C218.556 28.9975 218.804 28.8726 219.024 28.7072C219.235 28.5437 219.414 28.3427 219.552 28.1142C219.696 27.866 219.794 27.5937 219.842 27.3105H222.248C222.11 28.3756 221.592 29.3554 220.791 30.0709C220.357 30.4582 219.854 30.76 219.308 30.9603C218.687 31.1882 218.03 31.2999 217.369 31.2897C216.432 31.3123 215.506 31.0849 214.686 30.6309C213.887 30.1656 213.239 29.4792 212.821 28.6545C212.349 27.6853 212.123 26.6152 212.161 25.5383C212.129 24.456 212.367 23.3827 212.854 22.4155C213.272 21.5889 213.923 20.9021 214.726 20.439C215.532 19.9929 216.441 19.7658 217.363 19.7802C217.978 19.7742 218.59 19.8676 219.176 20.0569C219.716 20.2263 220.22 20.4968 220.659 20.854C221.096 21.2015 221.456 21.637 221.714 22.1322C222.004 22.6694 222.188 23.2578 222.254 23.8648V23.8648Z" fill="white"/>
<path d="M233.863 23.8649H231.464C231.426 23.5738 231.334 23.2923 231.193 23.0348C231.061 22.7971 230.884 22.587 230.673 22.4155C230.455 22.2404 230.207 22.1064 229.941 22.0202C229.651 21.9258 229.349 21.8791 229.044 21.8818C228.506 21.8688 227.977 22.0205 227.528 22.3166C227.077 22.6235 226.726 23.0567 226.519 23.5618C226.268 24.1898 226.147 24.8622 226.163 25.5383C226.145 26.2279 226.269 26.914 226.526 27.5543C226.723 28.0533 227.069 28.4795 227.517 28.7743C227.966 29.0691 228.495 29.2183 229.031 29.2013C229.33 29.205 229.628 29.1628 229.914 29.0761C230.176 28.9976 230.422 28.8726 230.64 28.7072C230.851 28.5438 231.029 28.3427 231.167 28.1143C231.313 27.8664 231.414 27.5941 231.464 27.3105H233.863C233.8 27.8304 233.643 28.3346 233.402 28.7994C233.149 29.2798 232.812 29.7105 232.406 30.0709C231.974 30.4564 231.473 30.758 230.93 30.9604C230.309 31.1871 229.652 31.2987 228.991 31.2898C228.054 31.3123 227.128 31.0849 226.308 30.6309C225.507 30.1677 224.859 29.4808 224.443 28.6545C223.971 27.6853 223.745 26.6153 223.783 25.5383C223.74 24.4588 223.967 23.3856 224.443 22.4155C224.864 21.5885 225.517 20.9018 226.322 20.439C227.127 19.9903 228.037 19.763 228.959 19.7802C229.574 19.7752 230.186 19.8686 230.771 20.0569C231.311 20.2294 231.813 20.4997 232.255 20.8541C232.688 21.2053 233.047 21.6399 233.31 22.1322C233.602 22.6697 233.79 23.2576 233.863 23.8649Z" fill="white"/>
<path d="M235.571 19.9384H237.938V26.9943H238.03L242.882 19.9384H244.959V31.1383H242.592V24.0955H242.513L237.635 31.158H235.578L235.571 19.9384Z" fill="white"/>
<path d="M246.917 19.9383H249.284V26.9943H249.383L254.235 19.9383H256.311V31.1382H253.938V24.0955H253.852L248.974 31.158H246.917V19.9383ZM252.699 17H254.327C254.337 17.3068 254.276 17.6119 254.148 17.8909C254.02 18.1699 253.828 18.4153 253.589 18.6075C253.005 19.0026 252.316 19.2138 251.611 19.2138C250.906 19.2138 250.217 19.0026 249.633 18.6075C249.395 18.4146 249.205 18.169 249.078 17.89C248.951 17.611 248.89 17.3063 248.901 17H250.503C250.501 17.242 250.588 17.4765 250.747 17.6588C250.857 17.7674 250.99 17.8503 251.136 17.9015C251.282 17.9528 251.437 17.9711 251.591 17.9553C251.743 17.9705 251.896 17.9518 252.04 17.9005C252.183 17.8493 252.314 17.7667 252.422 17.6588C252.588 17.4837 252.687 17.2546 252.699 17.0132V17Z" fill="white"/>
<path d="M268.17 23.8649H265.771C265.733 23.5738 265.641 23.2923 265.5 23.0348C265.37 22.7957 265.193 22.5852 264.979 22.4155C264.762 22.2404 264.514 22.1065 264.248 22.0202C263.958 21.9254 263.656 21.8787 263.351 21.8819C262.813 21.8688 262.284 22.0205 261.835 22.3167C261.386 22.6242 261.037 23.0573 260.833 23.5618C260.582 24.1898 260.461 24.8622 260.477 25.5383C260.457 26.2275 260.578 26.9135 260.833 27.5543C261.04 28.0556 261.391 28.4844 261.841 28.7863C262.289 29.0679 262.809 29.2123 263.338 29.2013C263.637 29.2051 263.935 29.1628 264.221 29.0762C264.484 28.999 264.73 28.8739 264.946 28.7072C265.159 28.544 265.34 28.343 265.48 28.1143C265.625 27.866 265.723 27.5937 265.771 27.3105H268.17C268.11 27.831 267.953 28.3358 267.709 28.7995C267.461 29.281 267.126 29.7122 266.72 30.071C266.286 30.4582 265.783 30.76 265.237 30.9604C264.616 31.1871 263.959 31.2987 263.298 31.2898C262.361 31.3124 261.435 31.085 260.615 30.631C259.816 30.1656 259.168 29.4793 258.75 28.6545C258.3 27.6759 258.067 26.6118 258.067 25.535C258.067 24.4582 258.3 23.3941 258.75 22.4155C259.171 21.5885 259.824 20.9018 260.628 20.4391C261.434 19.9912 262.344 19.764 263.265 19.7802C263.881 19.7748 264.493 19.8682 265.078 20.0569C265.618 20.2295 266.12 20.4997 266.562 20.8541C266.997 21.2035 267.356 21.6385 267.616 22.1322C267.912 22.6685 268.1 23.2569 268.17 23.8649V23.8649Z" fill="white"/>
<path d="M276.629 31.158L272.977 26.375H272.258V31.158H269.885V19.9581H272.258V24.4381H272.812L276.925 19.9581H279.984L275.08 25.3143L279.602 31.1778L276.629 31.158Z" fill="white"/>
<path d="M281.224 19.9384H283.597V26.9943H283.689L288.541 19.9384H290.618V31.1383H288.245V24.0955H288.159L283.28 31.158H281.224V19.9384Z" fill="white"/>
<path d="M292.576 19.9383H294.943V26.9943H295.035L299.887 19.9383H301.97V31.1382H299.591V24.0955H299.511L294.633 31.158H292.576V19.9383ZM298.351 17H299.986C299.996 17.3068 299.935 17.6119 299.807 17.8909C299.679 18.1699 299.487 18.4153 299.248 18.6075C298.664 19.0026 297.975 19.2138 297.27 19.2138C296.565 19.2138 295.876 19.0026 295.292 18.6075C295.054 18.4146 294.864 18.169 294.737 17.89C294.61 17.611 294.549 17.3063 294.56 17H296.176C296.168 17.1408 296.192 17.2816 296.246 17.412C296.3 17.5423 296.382 17.6589 296.487 17.7531C296.592 17.8474 296.717 17.9168 296.853 17.9563C296.988 17.9959 297.131 18.0045 297.27 17.9816C297.422 17.9969 297.575 17.9782 297.719 17.9269C297.862 17.8756 297.993 17.793 298.101 17.6852C298.264 17.4997 298.353 17.2604 298.351 17.0132V17Z" fill="white"/>
<path d="M168.546 39.5448V50.7447H166.199V41.4554H161.657V50.7447H159.316V39.5448H168.546Z" fill="white"/>
<path d="M170.807 50.7645V39.5646H178.375V41.541H173.187V44.2158H177.986V46.1923H173.187V48.8671H178.395V50.8435L170.807 50.7645Z" fill="white"/>
<path d="M179.661 53.4722V48.8605H180.419C180.708 48.6481 180.95 48.3791 181.131 48.0699C181.388 47.6291 181.574 47.1513 181.685 46.6534C181.866 45.8722 181.977 45.0762 182.015 44.2751L182.338 39.5316H189.761V48.8605H190.994V53.4722H188.713V50.7777H181.942V53.4854L179.661 53.4722ZM183.162 48.8605H187.48V41.5015H184.474L184.296 44.2883C184.258 44.9511 184.181 45.6111 184.065 46.2647C183.975 46.7749 183.845 47.2771 183.676 47.7668C183.544 48.1529 183.372 48.5239 183.162 48.8737V48.8605Z" fill="white"/>
<path d="M194.368 50.7645H191.83L195.706 39.5646H198.765L202.635 50.7645H200.09L197.282 42.1076H197.19L194.368 50.7645ZM194.21 46.357H200.216V48.2083H194.21V46.357Z" fill="white"/>
<path d="M211.429 39.5448V41.5213H206.333V50.7842H203.96V39.5843L211.429 39.5448Z" fill="white"/>
<path d="M222.768 45.1579C222.799 46.24 222.561 47.3129 222.076 48.2806C221.651 49.1068 220.996 49.793 220.19 50.2571C219.366 50.7005 218.444 50.9327 217.507 50.9327C216.571 50.9327 215.649 50.7005 214.824 50.2571C214.021 49.7926 213.368 49.1063 212.945 48.2806C212.489 47.3027 212.253 46.2368 212.253 45.1579C212.253 44.0789 212.489 43.013 212.945 42.0351C213.37 41.2107 214.022 40.5249 214.824 40.0586C215.65 39.6174 216.571 39.3866 217.507 39.3866C218.443 39.3866 219.365 39.6174 220.19 40.0586C220.996 40.5227 221.651 41.2089 222.076 42.0351C222.56 43.0034 222.798 44.0759 222.768 45.1579ZM220.362 45.1579C220.38 44.4715 220.262 43.7884 220.012 43.1485C219.809 42.6472 219.463 42.2166 219.017 41.9099C218.564 41.634 218.044 41.4881 217.514 41.4881C216.984 41.4881 216.464 41.634 216.011 41.9099C215.565 42.2166 215.219 42.6472 215.015 43.1485C214.541 44.4439 214.541 45.8653 215.015 47.1607C215.217 47.6629 215.564 48.094 216.011 48.3992C216.464 48.6751 216.984 48.821 217.514 48.821C218.044 48.821 218.564 48.6751 219.017 48.3992C219.464 48.094 219.811 47.6629 220.012 47.1607C220.261 46.5229 220.38 45.842 220.362 45.1579V45.1579Z" fill="white"/>
<path d="M231.979 39.5448V41.5213H226.903V50.7842H224.529V39.5843L231.979 39.5448Z" fill="white"/>
<path d="M233.501 39.5448H235.868V46.6007H235.96L240.812 39.5448H242.895V50.7447H240.515V43.7019H240.436L235.558 50.7645H233.501V39.5448Z" fill="white"/>
<path d="M245.302 39.5448H247.616V43.1617C247.598 43.5202 247.676 43.8769 247.84 44.1961C247.994 44.4657 248.243 44.6679 248.539 44.7626C248.932 44.8909 249.345 44.9489 249.758 44.9339H250.378C250.615 44.9339 250.859 44.9339 251.117 44.8812L251.835 44.789C252.027 44.7595 252.217 44.7154 252.402 44.6572V46.5349C252.214 46.5923 252.023 46.6363 251.828 46.6666C251.598 46.7062 251.36 46.7391 251.103 46.7654C250.846 46.7918 250.609 46.8182 250.372 46.8313H249.758C248.955 46.8467 248.155 46.7149 247.398 46.4426C246.77 46.2174 246.228 45.8002 245.849 45.2502C245.462 44.6243 245.272 43.8969 245.302 43.1617V39.5448ZM251.987 39.5448H254.307V50.7447H251.987V39.5448Z" fill="white"/>
<path d="M256.66 50.7645V39.5646H264.222V41.541H259.033V44.2158H263.833V46.1923H259.033V48.8671H264.248V50.8435L256.66 50.7645Z" fill="white"/>
<path d="M276.023 43.4713H273.623C273.585 43.1802 273.494 42.8987 273.353 42.6412C273.222 42.4023 273.045 42.1918 272.832 42.0219C272.614 41.8468 272.366 41.7128 272.1 41.6266C271.811 41.5322 271.508 41.4855 271.204 41.4883C270.667 41.4765 270.139 41.6257 269.687 41.9165C269.237 42.2277 268.887 42.6624 268.679 43.1683C268.427 43.796 268.306 44.4686 268.323 45.1447C268.305 45.8344 268.428 46.5204 268.685 47.1607C268.88 47.6615 269.225 48.0892 269.674 48.3845C270.123 48.6797 270.653 48.8276 271.191 48.8077C271.49 48.8115 271.788 48.7693 272.074 48.6826C272.335 48.6013 272.58 48.4765 272.799 48.3136C273.012 48.1494 273.191 47.9459 273.326 47.7141C273.473 47.4686 273.574 47.1985 273.623 46.9169H276.023C275.96 47.4349 275.804 47.9372 275.561 48.3993C275.309 48.8817 274.972 49.3146 274.566 49.6774C274.133 50.0628 273.632 50.3644 273.089 50.5668C272.468 50.7912 271.811 50.9006 271.151 50.8896C270.214 50.9122 269.288 50.6848 268.468 50.2308C267.667 49.7676 267.018 49.0806 266.602 48.2543C266.148 47.2758 265.913 46.2101 265.913 45.1315C265.913 44.0529 266.148 42.9873 266.602 42.0087C267.027 41.1843 267.679 40.4986 268.481 40.0323C269.287 39.5862 270.196 39.359 271.118 39.3734C271.733 39.3696 272.344 39.4607 272.931 39.6436C273.468 39.8168 273.968 40.087 274.408 40.4407C274.842 40.7929 275.203 41.2272 275.469 41.7188C275.762 42.2632 275.95 42.8576 276.023 43.4713V43.4713Z" fill="white"/>
<path d="M284.474 50.7645L280.828 46.0012H280.103V50.7842H277.729V39.5843H280.103V44.0248H280.657L284.77 39.5448H287.829L282.918 44.8944L287.44 50.7645H284.474Z" fill="white"/>
<path d="M289.075 39.5448H291.442V46.6007H291.541L296.393 39.5448H298.47V50.7447H296.096V43.7019H295.991L291.113 50.7645H289.056L289.075 39.5448Z" fill="white"/>
<path d="M300.428 39.5448H302.794V46.6007H302.887L307.739 39.5448H309.835V50.7447H307.462V43.7019H307.383L302.498 50.7645H300.448L300.428 39.5448ZM306.203 36.6064H307.857C307.868 36.9133 307.806 37.2183 307.678 37.4974C307.55 37.7764 307.359 38.0217 307.119 38.214C306.535 38.6091 305.846 38.8203 305.141 38.8203C304.436 38.8203 303.747 38.6091 303.164 38.214C302.926 38.0204 302.738 37.7745 302.612 37.4955C302.486 37.2166 302.427 36.9122 302.438 36.6064H304.054C304.053 36.8483 304.139 37.0823 304.297 37.2653C304.406 37.3762 304.538 37.4611 304.685 37.5135C304.831 37.566 304.987 37.5848 305.141 37.5683C305.294 37.5832 305.448 37.5643 305.593 37.5131C305.738 37.4619 305.869 37.3795 305.979 37.2719C306.129 37.083 306.208 36.8476 306.203 36.6064V36.6064Z" fill="white"/>
<path d="M319.796 40.7307H322.308C323.14 40.7165 323.963 40.9113 324.701 41.2973C325.385 41.6697 325.952 42.2266 326.336 42.9048C326.747 43.6455 326.954 44.4822 326.935 45.3292C326.953 46.1511 326.746 46.962 326.336 47.6746C325.948 48.338 325.381 48.879 324.701 49.236C323.961 49.6148 323.139 49.8049 322.308 49.7894H319.796C318.963 49.8086 318.138 49.6207 317.396 49.2426C316.712 48.8888 316.141 48.3501 315.748 47.6878C315.339 46.968 315.134 46.1503 315.155 45.3226C315.136 44.4756 315.343 43.6389 315.755 42.8982C316.142 42.2198 316.713 41.6648 317.403 41.2973C318.141 40.9113 318.963 40.7165 319.796 40.7307V40.7307ZM319.796 42.7071C319.352 42.6992 318.914 42.7987 318.517 42.997C318.15 43.1911 317.851 43.4921 317.66 43.8601C317.443 44.3138 317.339 44.8134 317.357 45.3161C317.339 45.7969 317.448 46.274 317.673 46.6996C317.866 47.0579 318.166 47.3478 318.53 47.5297C318.925 47.7177 319.359 47.8102 319.796 47.7998H322.321C322.757 47.8094 323.188 47.7145 323.58 47.5231C323.939 47.3408 324.232 47.0504 324.417 46.693C324.63 46.2681 324.734 45.7974 324.72 45.3226C324.735 44.8203 324.631 44.3215 324.417 43.8667C324.236 43.4966 323.943 43.1926 323.58 42.997C323.191 42.7975 322.758 42.6979 322.321 42.7071H319.796ZM322.176 39.3208V51.1795H319.921V39.3208H322.176Z" fill="white"/>
<path d="M328.689 50.7645V39.5646H336.251V41.541H331.063V44.2158H335.862V46.1923H331.063V48.8671H336.277V50.8435L328.689 50.7645Z" fill="white"/>
<path d="M348.071 43.4713H345.671C345.633 43.1802 345.542 42.8987 345.401 42.6412C345.27 42.4023 345.093 42.1918 344.88 42.0219C344.662 41.8468 344.414 41.7128 344.148 41.6266C343.859 41.5322 343.556 41.4855 343.252 41.4883C342.715 41.4765 342.187 41.6257 341.735 41.9165C341.285 42.2277 340.935 42.6624 340.727 43.1683C340.475 43.796 340.354 44.4686 340.371 45.1447C340.353 45.8344 340.476 46.5204 340.733 47.1607C340.93 47.6598 341.276 48.0859 341.725 48.3807C342.173 48.6756 342.702 48.8247 343.238 48.8077C343.538 48.8115 343.835 48.7693 344.122 48.6826C344.383 48.6013 344.628 48.4765 344.847 48.3136C345.06 48.1494 345.239 47.9459 345.374 47.7141C345.521 47.4686 345.621 47.1985 345.671 46.9169H348.071C348.008 47.4349 347.852 47.9372 347.609 48.3993C347.357 48.8817 347.02 49.3146 346.614 49.6774C346.181 50.0628 345.68 50.3644 345.137 50.5668C344.516 50.7912 343.859 50.9006 343.199 50.8896C342.262 50.9122 341.336 50.6848 340.516 50.2308C339.714 49.7676 339.066 49.0806 338.65 48.2543C338.196 47.2758 337.961 46.2101 337.961 45.1315C337.961 44.0529 338.196 42.9873 338.65 42.0087C339.075 41.1843 339.727 40.4986 340.529 40.0323C341.335 39.5862 342.244 39.359 343.166 39.3734C343.78 39.3696 344.392 39.4607 344.979 39.6436C345.517 39.8185 346.019 40.0885 346.462 40.4407C346.893 40.7949 347.251 41.2289 347.517 41.7188C347.81 42.2632 347.997 42.8576 348.071 43.4713V43.4713Z" fill="white"/>
<path d="M349.33 41.5015V39.525H358.559V41.5015H355.118V50.7645H352.771V41.5015H349.33Z" fill="white"/>
<path d="M360.076 39.5448H362.443V46.6007H362.535L367.387 39.5448H369.464V50.7447H367.091V43.7019H367.011L362.133 50.7645H360.076V39.5448Z" fill="white"/>
<path d="M371.422 50.7645V39.5646H375.918C376.626 39.5432 377.331 39.6688 377.988 39.9335C378.494 40.1422 378.927 40.495 379.234 40.9481C379.515 41.3956 379.659 41.9154 379.649 42.4436C379.655 42.8435 379.565 43.2389 379.386 43.5966C379.214 43.9218 378.965 44.2 378.66 44.4069C378.346 44.6211 377.992 44.7711 377.619 44.8483V44.9603C378.045 44.9781 378.46 45.1027 378.825 45.3227C379.204 45.5516 379.517 45.8737 379.735 46.2582C379.975 46.6934 380.096 47.1844 380.084 47.6812C380.095 48.2443 379.942 48.7983 379.643 49.2756C379.323 49.7669 378.864 50.1522 378.324 50.3824C377.655 50.6701 376.93 50.8073 376.201 50.7843L371.422 50.7645ZM373.795 44.2422H375.555C375.855 44.2485 376.152 44.1877 376.426 44.0643C376.669 43.9607 376.879 43.792 377.032 43.5768C377.181 43.3505 377.257 43.0836 377.25 42.8126C377.256 42.6284 377.22 42.4451 377.146 42.2764C377.072 42.1076 376.961 41.9576 376.821 41.8375C376.474 41.5677 376.04 41.4341 375.601 41.462H373.782L373.795 44.2422ZM373.795 48.8539H375.76C376.272 48.8931 376.783 48.7585 377.21 48.4718C377.357 48.3482 377.474 48.1924 377.552 48.0165C377.63 47.8407 377.666 47.6493 377.658 47.4572C377.665 47.1668 377.587 46.8808 377.434 46.6337C377.272 46.388 377.044 46.1937 376.775 46.0737C376.465 45.9327 376.127 45.8629 375.786 45.8695H373.808L373.795 48.8539Z" fill="white"/>
<path d="M383.558 50.7645H381.033L384.91 39.5646H387.968L391.838 50.7645H389.294L386.479 42.1076H386.393L383.558 50.7645ZM383.4 46.357H389.412V48.2083H383.4V46.357Z" fill="white"/>
<path d="M392.563 50.7644V48.8604H392.88C393.26 48.8412 393.618 48.6731 393.875 48.3926C394.171 48.0075 394.366 47.5546 394.442 47.075C394.587 46.2546 394.669 45.4242 394.686 44.5912L394.871 39.5974H402.492V50.7973H400.184V41.4487H397.073L396.901 45.3489C396.874 46.3907 396.723 47.4256 396.453 48.4322C396.279 49.1308 395.878 49.7518 395.313 50.1978C394.678 50.6066 393.931 50.8049 393.177 50.7644H392.563Z" fill="white"/>
<path d="M406.006 43.6954H408.682C409.473 43.674 410.259 43.8199 410.989 44.1236C411.594 44.377 412.111 44.8005 412.479 45.3424C412.841 45.8881 413.023 46.533 413 47.1871C413.021 47.8471 412.839 48.4978 412.479 49.0516C412.114 49.6068 411.597 50.0457 410.989 50.3165C410.263 50.6358 409.475 50.791 408.682 50.7711H404.489V39.5712H406.856V48.8869H408.682C409.057 48.8985 409.428 48.817 409.763 48.6497C410.034 48.5144 410.262 48.3054 410.419 48.0466C410.577 47.7879 410.658 47.4899 410.653 47.1871C410.657 46.9732 410.614 46.7611 410.527 46.5654C410.441 46.3698 410.313 46.1952 410.152 46.0539C409.738 45.7211 409.213 45.5564 408.682 45.5928H406.006V43.6954Z" fill="white"/>
<path d="M160.648 59.1775V64.448H159.844V59.1775H160.648ZM162.705 63.3215L164.531 59.1775H165.296L163.034 64.448H162.375L160.187 59.1775H160.938L162.705 63.3215ZM164.801 64.448V59.1775H165.606V64.448H164.801Z" fill="white"/>
<path d="M169.238 64.5337C168.776 64.5497 168.318 64.4331 167.92 64.1977C167.552 63.9726 167.259 63.6451 167.076 63.2556C166.869 62.8149 166.768 62.3323 166.779 61.8457C166.769 61.3572 166.871 60.8728 167.076 60.4293C167.254 60.0371 167.54 59.7035 167.9 59.4674C168.269 59.2313 168.701 59.1098 169.139 59.1182C169.415 59.1192 169.689 59.166 169.95 59.2566C170.22 59.351 170.467 59.5014 170.675 59.698C170.906 59.9246 171.083 60.199 171.196 60.5017C171.338 60.8988 171.405 61.3188 171.394 61.7403V62.0763H167.373V61.4175H170.59C170.594 61.1443 170.535 60.8739 170.418 60.6269C170.307 60.4005 170.133 60.2107 169.917 60.0801C169.69 59.9389 169.426 59.8678 169.159 59.8758C168.864 59.8675 168.574 59.9503 168.328 60.113C168.1 60.2678 167.916 60.4788 167.794 60.7257C167.669 60.9797 167.603 61.2593 167.603 61.5427V62.0038C167.595 62.3488 167.665 62.6912 167.808 63.0052C167.933 63.2675 168.136 63.4857 168.388 63.6311C168.648 63.7747 168.941 63.8474 169.238 63.8419C169.435 63.846 169.631 63.8171 169.818 63.7563C169.984 63.6968 170.134 63.6024 170.26 63.4796C170.391 63.3533 170.491 63.1974 170.55 63.025L171.328 63.2424C171.25 63.5026 171.109 63.74 170.919 63.9342C170.717 64.1407 170.472 64.3004 170.201 64.4019C169.891 64.505 169.564 64.5497 169.238 64.5337Z" fill="white"/>
<path d="M172.172 64.448L174.301 61.8128L172.205 59.1775H173.154L174.901 61.4109H175.349V59.1775H176.154V61.4109H176.576L178.316 59.1775H179.305L177.215 61.7535L179.331 64.3887H178.362L176.589 62.1422H176.18V64.448H175.349V62.2015H174.934L173.141 64.448H172.172Z" fill="white"/>
<path d="M180.445 64.448V59.1775H184.579V64.448H183.768V59.9681H181.283V64.448H180.445Z" fill="white"/>
<path d="M186.036 66.385V59.1775H186.814V60.0076H186.913C186.972 59.9154 187.051 59.7968 187.157 59.6584C187.279 59.5001 187.435 59.3698 187.612 59.2763C187.863 59.1525 188.142 59.0936 188.423 59.105C188.837 59.0971 189.243 59.2142 189.589 59.441C189.937 59.6709 190.212 59.9956 190.381 60.3765C190.577 60.8271 190.674 61.3148 190.664 61.8062C190.673 62.3018 190.577 62.7937 190.381 63.249C190.209 63.6278 189.938 63.9533 189.596 64.1911C189.25 64.4128 188.847 64.5274 188.436 64.5205C188.157 64.5328 187.881 64.4739 187.632 64.3492C187.449 64.2577 187.29 64.1272 187.163 63.9671C187.073 63.8514 186.989 63.7304 186.913 63.6048H186.84V66.3718L186.036 66.385ZM186.827 61.8062C186.821 62.1634 186.881 62.5187 187.005 62.8537C187.104 63.1319 187.28 63.3764 187.513 63.5586C187.757 63.726 188.047 63.8156 188.343 63.8156C188.64 63.8156 188.93 63.726 189.174 63.5586C189.407 63.3673 189.585 63.1171 189.688 62.8339C189.804 62.5062 189.86 62.1603 189.853 61.8128C189.857 61.4735 189.799 61.1364 189.682 60.8179C189.583 60.5397 189.407 60.2953 189.174 60.113C188.926 59.9479 188.635 59.8598 188.337 59.8598C188.039 59.8598 187.748 59.9479 187.5 60.113C187.266 60.2889 187.09 60.5294 186.992 60.8048C186.878 61.1284 186.822 61.4697 186.827 61.8128V61.8062Z" fill="white"/>
<path d="M194.085 64.5338C193.623 64.5476 193.166 64.4312 192.766 64.1978C192.401 63.9707 192.108 63.6438 191.923 63.2557C191.721 62.8134 191.622 62.3316 191.633 61.8458C191.623 61.358 191.722 60.8742 191.923 60.4294C192.103 60.0368 192.391 59.7032 192.753 59.4675C193.122 59.2303 193.554 59.1087 193.993 59.1183C194.267 59.1187 194.539 59.1655 194.797 59.2567C195.069 59.351 195.318 59.5014 195.529 59.6981C195.759 59.9247 195.937 60.1991 196.049 60.5019C196.186 60.9002 196.251 61.3195 196.241 61.7404V62.0764H192.206V61.4176H195.423C195.428 61.1436 195.367 60.8724 195.245 60.627C195.136 60.4015 194.964 60.2118 194.751 60.0802C194.523 59.9397 194.26 59.8687 193.993 59.876C193.698 59.8676 193.408 59.9504 193.162 60.1132C192.931 60.2658 192.744 60.4773 192.621 60.7258C192.498 60.9803 192.434 61.2599 192.437 61.5428V62.004C192.425 62.3492 192.495 62.6924 192.641 63.0054C192.767 63.2658 192.966 63.4835 193.215 63.6312C193.657 63.8592 194.171 63.9042 194.645 63.7564C194.813 63.697 194.965 63.6027 195.094 63.4797C195.225 63.3534 195.325 63.1975 195.384 63.0251L196.162 63.2425C196.081 63.5032 195.938 63.7405 195.746 63.9343C195.547 64.1416 195.304 64.3014 195.034 64.402C194.729 64.5035 194.407 64.5482 194.085 64.5338Z" fill="white"/>
<path d="M196.927 65.9238V63.6772H197.362C197.465 63.5655 197.558 63.4442 197.639 63.3149C197.724 63.1691 197.792 63.0144 197.843 62.8537C197.906 62.6376 197.955 62.4175 197.988 62.1949C198.028 61.9379 198.067 61.6283 198.1 61.2594L198.278 59.1907H201.607V63.6772H202.412V65.9238H201.607V64.4481H197.764V65.9502L196.927 65.9238ZM198.278 63.6772H200.797V59.9417H199.023L198.891 61.2594C198.832 61.8062 198.759 62.2871 198.68 62.6956C198.617 63.0474 198.48 63.3818 198.278 63.6772V63.6772Z" fill="white"/>
<path d="M204.277 59.1775V64.448H203.473V59.1775H204.277ZM206.34 63.3215L208.166 59.1775H208.931L206.663 64.448H206.004L203.789 59.1775H204.534L206.34 63.3215ZM208.397 64.4085V59.1775H209.201V64.448L208.397 64.4085Z" fill="white"/>
<path d="M212.874 64.5338C212.411 64.5494 211.954 64.4329 211.555 64.1978C211.19 63.9707 210.897 63.6438 210.711 63.2557C210.507 62.8144 210.408 62.3319 210.421 61.8458C210.409 61.3578 210.508 60.8735 210.711 60.4294C210.892 60.0368 211.18 59.7032 211.542 59.4675C211.911 59.2303 212.343 59.1087 212.781 59.1183C213.055 59.1187 213.327 59.1655 213.586 59.2567C213.856 59.3496 214.104 59.5002 214.311 59.6981C214.545 59.9225 214.726 60.1973 214.838 60.5019C214.974 60.9002 215.039 61.3195 215.029 61.7404V62.0764H210.988V61.4176H214.245C214.25 61.1436 214.189 60.8724 214.067 60.627C213.955 60.3924 213.777 60.1959 213.554 60.0623C213.331 59.9287 213.074 59.8638 212.814 59.876C212.519 59.8676 212.229 59.9504 211.984 60.1132C211.752 60.2658 211.566 60.4773 211.443 60.7258C211.319 60.9803 211.256 61.2599 211.258 61.5428V62.004C211.246 62.3492 211.316 62.6924 211.463 63.0054C211.588 63.2658 211.788 63.4835 212.036 63.6312C212.299 63.7748 212.594 63.8474 212.893 63.842C213.088 63.8456 213.282 63.8167 213.467 63.7564C213.634 63.697 213.787 63.6027 213.915 63.4797C214.044 63.3516 214.143 63.1963 214.205 63.0251L214.983 63.2425C214.9 63.5021 214.758 63.7388 214.568 63.9343C214.365 64.1409 214.12 64.3005 213.849 64.402C213.536 64.5084 213.204 64.5531 212.874 64.5338V64.5338Z" fill="white"/>
<path d="M215.78 59.9417V59.1775H220.032V59.9286H218.312V64.448H217.54V59.9681L215.78 59.9417Z" fill="white"/>
<path d="M222.01 59.1775V64.448H221.206V59.1775H222.01ZM224.713 61.4241V62.1751H221.819V61.4241H224.713ZM225.326 59.1775V64.448H224.522V59.1775H225.326Z" fill="white"/>
<path d="M227.495 61.0815H228.999C229.512 61.0482 230.018 61.2159 230.409 61.5492C230.569 61.7019 230.695 61.8863 230.779 62.0905C230.863 62.2948 230.903 62.5144 230.897 62.7351C230.901 63.0327 230.826 63.3259 230.68 63.585C230.523 63.8478 230.294 64.0603 230.02 64.1977C229.699 64.3569 229.344 64.4339 228.985 64.4217H226.79V59.1775H227.594V63.664H228.985C229.269 63.6756 229.548 63.5844 229.77 63.4071C229.87 63.3298 229.951 63.2297 230.004 63.1151C230.058 63.0005 230.084 62.8748 230.08 62.7483C230.079 62.6226 230.051 62.4984 229.998 62.3846C229.944 62.2708 229.866 62.1701 229.77 62.0895C229.55 61.9077 229.27 61.8138 228.985 61.8259H227.495V61.0815ZM231.728 64.4217V59.1775H232.532V64.448L231.728 64.4217Z" fill="white"/>
<path d="M234.609 59.1775L235.862 61.3186L237.114 59.1775H238.044L236.35 61.8128L238.044 64.448H237.114L235.862 62.4189L234.609 64.448H233.68L235.341 61.8128L233.68 59.1775H234.609Z" fill="white"/>
<path d="M241.894 64.448V59.1775H246.014V64.448H245.229V59.9681H242.718V64.448H241.894Z" fill="white"/>
<path d="M247.483 66.385V59.1776H248.261V60.0077H248.36C248.42 59.9155 248.499 59.7969 248.604 59.6585C248.728 59.4986 248.885 59.368 249.066 59.2764C249.315 59.1517 249.592 59.0928 249.87 59.1051C250.284 59.0972 250.69 59.2143 251.037 59.4411C251.384 59.671 251.659 59.9957 251.828 60.3766C252.028 60.826 252.125 61.3145 252.111 61.8063C252.124 62.3022 252.027 62.7947 251.828 63.2491C251.658 63.6291 251.386 63.9551 251.043 64.1912C250.7 64.412 250.298 64.5266 249.89 64.5206C249.609 64.5326 249.33 64.4737 249.079 64.3493C248.898 64.2559 248.738 64.1257 248.611 63.9672C248.52 63.8514 248.436 63.7305 248.36 63.6048H248.288V66.3719L247.483 66.385ZM248.274 61.8063C248.268 62.1635 248.328 62.5188 248.452 62.8538C248.552 63.132 248.728 63.3764 248.96 63.5587C249.197 63.7306 249.485 63.8187 249.778 63.8091C250.081 63.8209 250.379 63.7278 250.621 63.5455C250.855 63.3542 251.032 63.104 251.136 62.8208C251.253 62.4956 251.311 62.152 251.307 61.8063C251.311 61.467 251.253 61.1299 251.136 60.8115C251.037 60.5332 250.861 60.2888 250.628 60.1065C250.384 59.9228 250.083 59.8296 249.778 59.843C249.483 59.83 249.193 59.9158 248.954 60.0867C248.72 60.2626 248.544 60.5031 248.446 60.7785C248.326 61.11 248.268 61.4605 248.274 61.8128V61.8063Z" fill="white"/>
<path d="M255.467 64.5338C255.028 64.5436 254.595 64.427 254.221 64.1978C253.859 63.9673 253.571 63.6381 253.39 63.2491C253.184 62.806 253.082 62.3213 253.094 61.8326C253.082 61.3397 253.184 60.8508 253.39 60.403C253.573 60.017 253.861 59.6905 254.221 59.4609C254.598 59.2363 255.028 59.1178 255.467 59.1178C255.906 59.1178 256.336 59.2363 256.713 59.4609C257.073 59.6905 257.361 60.017 257.544 60.403C257.75 60.8508 257.851 61.3397 257.84 61.8326C257.851 62.3213 257.75 62.806 257.544 63.2491C257.363 63.6381 257.075 63.9673 256.713 64.1978C256.338 64.427 255.906 64.5436 255.467 64.5338V64.5338ZM255.467 63.8091C255.786 63.8208 256.1 63.7232 256.357 63.5324C256.592 63.3434 256.771 63.0924 256.871 62.8077C257.097 62.1682 257.097 61.4707 256.871 60.8312C256.769 60.5436 256.591 60.2887 256.357 60.0934C256.095 59.9132 255.785 59.8167 255.467 59.8167C255.149 59.8167 254.839 59.9132 254.577 60.0934C254.342 60.2887 254.165 60.5436 254.063 60.8312C253.837 61.4707 253.837 62.1682 254.063 62.8077C254.163 63.0924 254.341 63.3434 254.577 63.5324C254.835 63.7171 255.15 63.8078 255.467 63.7893V63.8091Z" fill="white"/>
<path d="M261.268 64.5337C260.806 64.5493 260.349 64.4327 259.95 64.1977C259.583 63.9726 259.289 63.6451 259.106 63.2556C258.9 62.8149 258.798 62.3323 258.809 61.8457C258.8 61.3572 258.901 60.8728 259.106 60.4293C259.284 60.0371 259.57 59.7035 259.93 59.4674C260.3 59.2313 260.731 59.1098 261.17 59.1182C261.446 59.1186 261.72 59.1654 261.98 59.2566C262.251 59.351 262.498 59.5014 262.706 59.698C262.936 59.9246 263.114 60.199 263.226 60.5017C263.368 60.8988 263.435 61.3188 263.424 61.7403V62.0763H259.383V61.4175H262.6C262.607 61.144 262.549 60.8728 262.429 60.6269C262.318 60.4005 262.144 60.2107 261.928 60.0801C261.701 59.9389 261.437 59.8678 261.17 59.8758C260.875 59.8687 260.585 59.9515 260.339 60.113C260.111 60.2678 259.927 60.4788 259.805 60.7257C259.679 60.9797 259.614 61.2593 259.614 61.5427V62.0038C259.604 62.3496 259.676 62.6928 259.825 63.0052C259.946 63.2683 260.147 63.487 260.398 63.6311C260.66 63.7755 260.956 63.8482 261.255 63.8419C261.45 63.8455 261.644 63.8166 261.829 63.7563C261.994 63.6968 262.145 63.6024 262.271 63.4796C262.402 63.3533 262.501 63.1974 262.561 63.025L263.338 63.2424C263.26 63.5026 263.12 63.74 262.93 63.9342C262.727 64.1407 262.482 64.3004 262.211 64.4019C261.908 64.5035 261.588 64.5482 261.268 64.5337V64.5337Z" fill="white"/>
<path d="M264.664 64.448V59.1775H265.468V61.4504H266.002L267.881 59.1775H268.923L266.807 61.7008L268.962 64.448H267.908L266.194 62.241H265.468V64.448H264.664Z" fill="white"/>
<path d="M269.522 59.9417V59.1775H273.775V59.9286H272.061V64.448H271.25V59.9681L269.522 59.9417Z" fill="white"/>
<path d="M276.807 64.5338C276.373 64.5466 275.944 64.4317 275.575 64.2033C275.206 63.9749 274.912 63.6431 274.73 63.2491C274.524 62.806 274.422 62.3213 274.433 61.8326C274.422 61.3397 274.524 60.8508 274.73 60.403C274.915 60.0168 275.205 59.6903 275.567 59.4609C275.943 59.2369 276.373 59.1187 276.81 59.1187C277.248 59.1187 277.677 59.2369 278.053 59.4609C278.413 59.6905 278.701 60.017 278.883 60.403C279.09 60.8508 279.191 61.3397 279.18 61.8326C279.191 62.3213 279.09 62.806 278.883 63.2491C278.703 63.6381 278.415 63.9672 278.053 64.1978C277.678 64.427 277.246 64.5436 276.807 64.5338V64.5338ZM276.807 63.8091C277.126 63.8219 277.441 63.7241 277.697 63.5324C277.932 63.3434 278.11 63.0924 278.211 62.8077C278.437 62.1682 278.437 61.4707 278.211 60.8312C278.109 60.5436 277.931 60.2887 277.697 60.0933C277.441 59.9016 277.126 59.8038 276.807 59.8166C276.489 59.8037 276.177 59.9016 275.923 60.0933C275.685 60.2865 275.505 60.5419 275.403 60.8312C275.177 61.4707 275.177 62.1682 275.403 62.8077C275.503 63.094 275.684 63.3455 275.923 63.5324C276.179 63.7171 276.491 63.8079 276.807 63.7893V63.8091Z" fill="white"/>
<path d="M280.413 64.4481V59.1775H282.549C283.019 59.156 283.482 59.2903 283.868 59.5596C284.028 59.6735 284.157 59.825 284.245 60.0009C284.332 60.1767 284.375 60.3714 284.369 60.5676C284.377 60.7037 284.356 60.84 284.307 60.9673C284.258 61.0945 284.182 61.2099 284.085 61.3055C283.88 61.4859 283.629 61.6067 283.36 61.6547C283.558 61.685 283.749 61.7545 283.92 61.8589C284.104 61.9714 284.26 62.1247 284.375 62.3069C284.504 62.5167 284.568 62.7595 284.56 63.0053C284.562 63.2593 284.491 63.5087 284.355 63.7234C284.212 63.943 284.008 64.1167 283.769 64.2241C283.481 64.3548 283.168 64.4179 282.852 64.4086L280.413 64.4481ZM281.171 61.4109H282.549C282.74 61.4142 282.93 61.383 283.109 61.3187C283.25 61.2677 283.373 61.1787 283.465 61.0618C283.55 60.9451 283.594 60.8039 283.591 60.6599C283.593 60.5566 283.569 60.4545 283.521 60.3633C283.472 60.2721 283.401 60.195 283.314 60.1394C283.084 60.0012 282.817 59.9347 282.549 59.9484H281.171V61.4109ZM281.171 63.7168H282.879C283.115 63.7319 283.349 63.6618 283.538 63.5191C283.617 63.4537 283.679 63.3709 283.72 63.2771C283.762 63.1833 283.78 63.0812 283.775 62.9789C283.784 62.8586 283.767 62.7378 283.726 62.6244C283.686 62.5109 283.621 62.4072 283.538 62.3201C283.45 62.2377 283.346 62.1742 283.233 62.1334C283.119 62.0926 282.999 62.0754 282.879 62.0829H281.171V63.7168Z" fill="white"/>
<path d="M288.502 64.448V59.1775H292.622V64.448H291.818V59.9681H289.306V64.448H288.502Z" fill="white"/>
<path d="M296.222 64.5338C295.788 64.5466 295.36 64.4317 294.99 64.2033C294.621 63.9749 294.327 63.6431 294.145 63.2491C293.939 62.806 293.837 62.3213 293.849 61.8326C293.837 61.3397 293.939 60.8508 294.145 60.403C294.33 60.0168 294.621 59.6903 294.982 59.4609C295.358 59.2369 295.788 59.1187 296.225 59.1187C296.663 59.1187 297.092 59.2369 297.468 59.4609C297.828 59.6905 298.116 60.017 298.298 60.403C298.513 60.8421 298.626 61.3241 298.628 61.8129C298.639 62.3015 298.538 62.7862 298.331 63.2293C298.151 63.6183 297.863 63.9475 297.501 64.178C297.119 64.4203 296.674 64.5441 296.222 64.5338ZM296.222 63.8091C296.541 63.8219 296.856 63.7241 297.112 63.5324C297.347 63.3434 297.525 63.0924 297.626 62.8077C297.852 62.1682 297.852 61.4707 297.626 60.8312C297.524 60.5436 297.346 60.2887 297.112 60.0933C296.856 59.9016 296.541 59.8038 296.222 59.8166C295.904 59.8037 295.592 59.9016 295.338 60.0933C295.1 60.2852 294.922 60.5412 294.824 60.8312C294.589 61.4691 294.589 62.1698 294.824 62.8077C294.92 63.0948 295.099 63.347 295.338 63.5324C295.594 63.7171 295.907 63.8079 296.222 63.7893V63.8091Z" fill="white"/>
<path d="M306.413 57.201L306.822 57.6886C306.669 57.8426 306.478 57.9539 306.268 58.0114C306.039 58.0789 305.802 58.1166 305.563 58.1234L304.679 58.1695C304.359 58.1685 304.046 58.2601 303.776 58.433C303.529 58.6239 303.344 58.8827 303.242 59.1775C303.103 59.5403 303.02 59.9226 302.998 60.3107H303.064C303.228 59.9989 303.486 59.7473 303.803 59.5926C304.115 59.434 304.461 59.3526 304.811 59.3554C305.198 59.3504 305.578 59.4506 305.912 59.6453C306.243 59.8481 306.506 60.1437 306.67 60.4951C306.875 60.9269 306.974 61.4011 306.96 61.8787C306.971 62.3687 306.872 62.8548 306.67 63.3017C306.49 63.6779 306.206 63.9953 305.853 64.2175C305.483 64.4394 305.058 64.5514 304.627 64.5403C304.193 64.5481 303.766 64.434 303.394 64.2109C303.027 63.9697 302.742 63.6227 302.576 63.2161C302.364 62.703 302.262 62.1505 302.28 61.5954V61.0354C302.223 60.1185 302.429 59.2044 302.873 58.4001C303.067 58.1039 303.334 57.8623 303.647 57.6985C303.961 57.5347 304.312 57.4542 304.666 57.4646C304.95 57.4646 305.2 57.4646 305.424 57.4646C305.616 57.4683 305.808 57.4573 305.998 57.4316C306.155 57.3958 306.299 57.3158 306.413 57.201V57.201ZM304.627 63.7892C304.917 63.7966 305.203 63.7137 305.444 63.5521C305.679 63.3871 305.862 63.1585 305.971 62.8932C306.102 62.5668 306.165 62.217 306.156 61.8655C306.163 61.5312 306.1 61.1991 305.971 60.8904C305.857 60.6389 305.671 60.4261 305.437 60.2777C305.188 60.1327 304.902 60.0597 304.613 60.0669C304.388 60.06 304.163 60.1004 303.954 60.1855C303.77 60.2644 303.607 60.3864 303.48 60.5413C303.34 60.7046 303.237 60.8954 303.176 61.1013C303.1 61.349 303.06 61.6064 303.058 61.8655C303.031 62.369 303.178 62.8664 303.473 63.2754C303.607 63.4507 303.783 63.5896 303.984 63.6793C304.186 63.7691 304.407 63.8069 304.627 63.7892Z" fill="white"/>
<path d="M310.382 64.5337C309.92 64.5475 309.463 64.4311 309.063 64.1977C308.7 63.9702 308.409 63.6432 308.226 63.2556C308.02 62.8149 307.918 62.3323 307.93 61.8457C307.92 61.3572 308.021 60.8728 308.226 60.4293C308.404 60.0371 308.69 59.7035 309.05 59.4674C309.42 59.2313 309.851 59.1098 310.29 59.1182C310.566 59.1192 310.84 59.166 311.101 59.2566C311.371 59.351 311.618 59.5014 311.826 59.698C312.056 59.9246 312.234 60.199 312.347 60.5017C312.486 60.8993 312.551 61.3192 312.538 61.7403V62.0763H308.516V61.4175H311.733C311.738 61.1443 311.679 60.8739 311.562 60.6269C311.451 60.4005 311.277 60.2107 311.061 60.0801C310.834 59.9389 310.57 59.8678 310.303 59.8758C310.008 59.8675 309.718 59.9503 309.472 60.113C309.242 60.2676 309.056 60.4786 308.932 60.7257C308.811 60.9812 308.748 61.2601 308.747 61.5427V62.0038C308.735 62.3491 308.805 62.6922 308.951 63.0052C309.077 63.2675 309.279 63.4857 309.532 63.6311C309.792 63.7747 310.085 63.8474 310.382 63.8419C310.579 63.8455 310.775 63.8166 310.962 63.7563C311.127 63.6968 311.278 63.6024 311.404 63.4796C311.535 63.3533 311.635 63.1974 311.694 63.025L312.472 63.2424C312.394 63.5042 312.251 63.7421 312.056 63.9342C311.857 64.1415 311.614 64.3013 311.344 64.4019C311.035 64.505 310.708 64.5497 310.382 64.5337Z" fill="white"/>
<path d="M313.454 63.091H314.311C314.317 63.1997 314.349 63.3053 314.405 63.3984C314.462 63.4915 314.54 63.5693 314.634 63.6246C314.869 63.7579 315.136 63.8218 315.405 63.8091C315.695 63.8173 315.981 63.7491 316.236 63.6115C316.353 63.5488 316.448 63.4524 316.509 63.3349C316.57 63.2174 316.595 63.0842 316.579 62.9526C316.582 62.7892 316.536 62.6287 316.447 62.4915C316.356 62.3589 316.231 62.2541 316.084 62.1884C315.91 62.1115 315.721 62.0733 315.531 62.0764H314.628V61.3583H315.531C315.785 61.3788 316.038 61.301 316.236 61.1409C316.311 61.0689 316.371 60.9825 316.412 60.8868C316.453 60.7912 316.474 60.6882 316.474 60.5842C316.474 60.4802 316.453 60.3772 316.412 60.2815C316.371 60.1858 316.311 60.0994 316.236 60.0275C316.033 59.8774 315.783 59.8029 315.531 59.8167C315.259 59.8035 314.989 59.8748 314.759 60.0209C314.666 60.0763 314.587 60.154 314.531 60.2471C314.474 60.3402 314.442 60.4458 314.436 60.5545H313.593C313.595 60.283 313.685 60.0196 313.85 59.8035C314.022 59.58 314.249 59.4051 314.509 59.2962C314.815 59.1653 315.145 59.1002 315.478 59.1051C315.81 59.097 316.139 59.1646 316.44 59.3028C316.705 59.4101 316.934 59.5907 317.1 59.8233C317.248 60.0432 317.326 60.3027 317.324 60.5677C317.336 60.8283 317.246 61.0834 317.073 61.2792C316.906 61.4657 316.689 61.6005 316.447 61.6679V61.7272C316.635 61.7361 316.816 61.8003 316.968 61.9117C317.115 62.03 317.233 62.1812 317.311 62.3531C317.391 62.5427 317.431 62.7468 317.429 62.9526C317.435 63.2498 317.345 63.5408 317.172 63.7827C316.993 64.0247 316.752 64.2137 316.473 64.3296C316.149 64.4604 315.802 64.5253 315.452 64.5206C315.111 64.5275 314.772 64.4647 314.456 64.3361C314.183 64.2305 313.942 64.0557 313.757 63.8289C313.577 63.6233 313.471 63.3638 313.454 63.091V63.091Z" fill="white"/>
<path d="M320.659 64.5338C320.22 64.5436 319.788 64.427 319.413 64.1978C319.051 63.9672 318.763 63.638 318.583 63.2491C318.376 62.806 318.275 62.3213 318.286 61.8326C318.275 61.3397 318.376 60.8508 318.583 60.403C318.765 60.017 319.053 59.6905 319.413 59.4609C319.789 59.2369 320.218 59.1187 320.656 59.1187C321.094 59.1187 321.523 59.2369 321.899 59.4609C322.259 59.6922 322.549 60.0181 322.736 60.403C322.935 60.8458 323.032 61.3276 323.019 61.8129C323.031 62.3015 322.929 62.7862 322.723 63.2293C322.538 63.6174 322.248 63.946 321.885 64.178C321.519 64.4108 321.094 64.5343 320.659 64.5338ZM320.659 63.8091C320.977 63.822 321.289 63.7241 321.543 63.5324C321.78 63.3451 321.959 63.0936 322.057 62.8077C322.292 62.1698 322.292 61.4691 322.057 60.8312C321.957 60.5424 321.779 60.2869 321.543 60.0933C321.282 59.9129 320.973 59.8161 320.656 59.8161C320.339 59.8161 320.03 59.9129 319.769 60.0933C319.535 60.2887 319.357 60.5436 319.255 60.8312C319.029 61.4707 319.029 62.1682 319.255 62.8077C319.356 63.0924 319.534 63.3434 319.769 63.5324C320.027 63.7181 320.342 63.8089 320.659 63.7893V63.8091Z" fill="white"/>
<path d="M324.259 64.448V59.1775H328.379V64.448H327.575V59.9681H325.063V64.448H324.259Z" fill="white"/>
<path d="M331.399 64.547C331.085 64.5506 330.774 64.4853 330.489 64.3559C330.221 64.2404 329.992 64.0506 329.83 63.8091C329.66 63.5516 329.575 63.2476 329.586 62.9394C329.573 62.6836 329.634 62.4294 329.764 62.2082C329.879 62.0211 330.043 61.8686 330.238 61.7667C330.446 61.6552 330.668 61.5731 330.898 61.523C331.135 61.4703 331.379 61.4307 331.623 61.3978L332.394 61.3056C332.547 61.295 332.696 61.257 332.836 61.1936C332.883 61.1652 332.921 61.1242 332.945 61.0752C332.97 61.0262 332.98 60.9714 332.974 60.9169V60.9169C332.983 60.7744 332.962 60.6316 332.915 60.497C332.867 60.3624 332.793 60.2386 332.697 60.1329C332.584 60.0337 332.453 59.9582 332.31 59.9106C332.167 59.8631 332.017 59.8446 331.867 59.8562C331.546 59.8389 331.229 59.9268 330.964 60.1065C330.77 60.249 330.613 60.4338 330.502 60.6468L329.737 60.3766C329.854 60.0864 330.042 59.8303 330.284 59.6322C330.504 59.4532 330.761 59.325 331.036 59.2566C331.298 59.1844 331.568 59.1467 331.84 59.1447C332.035 59.1473 332.229 59.1671 332.42 59.2039C332.653 59.2452 332.876 59.3278 333.08 59.4477C333.297 59.5861 333.475 59.7792 333.594 60.0077C333.742 60.3177 333.812 60.6592 333.798 61.0025V64.4481H332.994V63.7432H332.948C332.879 63.8782 332.787 64.0007 332.678 64.1056C332.534 64.25 332.361 64.3622 332.17 64.435C331.923 64.5247 331.661 64.5628 331.399 64.547ZM331.517 63.8223C331.799 63.8313 332.078 63.7678 332.328 63.6378C332.534 63.5224 332.704 63.354 332.823 63.1503C332.933 62.9625 332.992 62.7489 332.994 62.531V61.8129C332.93 61.8688 332.853 61.9074 332.77 61.9249C332.651 61.9578 332.519 61.9841 332.374 62.0105L331.939 62.0698L331.603 62.1093C331.404 62.1371 331.208 62.1812 331.016 62.2411C330.851 62.2928 330.701 62.3857 330.581 62.5112C330.522 62.5773 330.477 62.6545 330.449 62.7382C330.421 62.822 330.41 62.9106 330.416 62.9987C330.404 63.1262 330.426 63.2548 330.481 63.3707C330.535 63.4867 330.62 63.5858 330.726 63.6575C330.966 63.7938 331.243 63.8514 331.517 63.8223V63.8223Z" fill="white"/>
<path d="M337.398 64.5337C336.951 64.545 336.511 64.4235 336.133 64.1845C335.772 63.9529 335.488 63.6207 335.315 63.2292C335.116 62.7909 335.017 62.3138 335.025 61.8325C335.015 61.3461 335.117 60.8639 335.322 60.4227C335.502 60.0335 335.787 59.7026 336.146 59.4674C336.515 59.2313 336.947 59.1098 337.385 59.1182C337.728 59.1151 338.067 59.1847 338.381 59.3224C338.666 59.4509 338.915 59.6478 339.106 59.8956C339.298 60.147 339.421 60.4447 339.462 60.7587H338.657C338.593 60.5019 338.45 60.2716 338.249 60.0998C338.009 59.9056 337.706 59.807 337.398 59.8231C337.105 59.8168 336.817 59.902 336.574 60.0669C336.337 60.234 336.148 60.4614 336.027 60.7257C335.889 61.0527 335.822 61.4052 335.829 61.7601C335.822 62.1206 335.887 62.479 336.021 62.8142C336.135 63.095 336.324 63.3389 336.568 63.5191C336.812 63.6849 337.103 63.7702 337.398 63.7629C337.595 63.7667 337.79 63.7309 337.972 63.6575C338.137 63.5857 338.283 63.4776 338.4 63.3412C338.522 63.2001 338.61 63.0334 338.657 62.8537H339.462C339.419 63.1574 339.301 63.4457 339.119 63.6928C338.937 63.94 338.697 64.1383 338.42 64.2702C338.105 64.4364 337.755 64.5266 337.398 64.5337V64.5337Z" fill="white"/>
<path d="M341.439 59.1775V64.448H340.635V59.1775H341.439ZM344.142 61.4241V62.1751H341.248V61.4241H344.142ZM344.775 59.1775V64.448H343.971V59.1775H344.775Z" fill="white"/>
<path d="M348.355 64.5338C347.916 64.5436 347.483 64.427 347.109 64.1978C346.747 63.9673 346.459 63.6381 346.278 63.2491C346.072 62.806 345.97 62.3213 345.981 61.8326C345.97 61.3397 346.072 60.8508 346.278 60.403C346.461 60.017 346.748 59.6905 347.109 59.4609C347.485 59.2363 347.916 59.1178 348.355 59.1178C348.793 59.1178 349.224 59.2363 349.601 59.4609C349.961 59.6905 350.249 60.017 350.431 60.403C350.628 60.8463 350.723 61.3281 350.708 61.8129C350.719 62.3015 350.618 62.7862 350.411 63.2293C350.231 63.6183 349.943 63.9475 349.581 64.178C349.214 64.4105 348.789 64.5339 348.355 64.5338ZM348.355 63.8091C348.674 63.8219 348.989 63.7241 349.245 63.5324C349.48 63.3434 349.658 63.0924 349.759 62.8077C349.984 62.1682 349.984 61.4707 349.759 60.8312C349.657 60.5436 349.479 60.2887 349.245 60.0934C348.983 59.9132 348.672 59.8167 348.355 59.8167C348.037 59.8167 347.726 59.9132 347.465 60.0934C347.23 60.2887 347.052 60.5436 346.95 60.8312C346.725 61.4707 346.725 62.1682 346.95 62.8077C347.051 63.0924 347.229 63.3434 347.465 63.5324C347.724 63.7162 348.037 63.8067 348.355 63.7893V63.8091Z" fill="white"/>
<path d="M354.084 64.5337C353.637 64.5442 353.197 64.4227 352.818 64.1845C352.46 63.9509 352.176 63.6193 352.001 63.2292C351.802 62.7909 351.703 62.3138 351.711 61.8325C351.701 61.3461 351.802 60.8639 352.007 60.4227C352.187 60.0335 352.473 59.7026 352.831 59.4674C353.201 59.2313 353.632 59.1098 354.071 59.1182C354.413 59.1151 354.753 59.1847 355.066 59.3224C355.351 59.4509 355.601 59.6478 355.791 59.8956C355.984 60.147 356.107 60.4447 356.147 60.7587H355.323C355.259 60.5019 355.116 60.2716 354.915 60.0998C354.675 59.9056 354.372 59.807 354.064 59.8231C353.771 59.8168 353.483 59.902 353.24 60.0669C353.002 60.234 352.813 60.4614 352.693 60.7257C352.555 61.0527 352.487 61.4052 352.495 61.7601C352.488 62.1207 352.553 62.479 352.686 62.8142C352.803 63.0936 352.992 63.337 353.233 63.5191C353.478 63.6849 353.769 63.7702 354.064 63.7629C354.26 63.7667 354.456 63.7309 354.638 63.6575C354.804 63.5875 354.95 63.4792 355.066 63.3412C355.187 63.2001 355.275 63.0334 355.323 62.8537H356.128C356.084 63.1574 355.967 63.4457 355.785 63.6928C355.603 63.94 355.363 64.1383 355.086 64.2702C354.777 64.4335 354.434 64.5236 354.084 64.5337V64.5337Z" fill="white"/>
<path d="M356.911 59.9417V59.1775H361.17V59.9286H359.449V64.448H358.619V59.9681L356.911 59.9417Z" fill="white"/>
<path d="M363.148 63.2358L365.673 59.1775H366.602V64.448H365.792V60.4029L363.286 64.448H362.344V59.1775H363.148V63.2358Z" fill="white"/>
<path d="M159.283 77.5388V75.2922H159.718C159.823 75.1818 159.916 75.0603 159.995 74.9299C160.078 74.7838 160.144 74.6291 160.193 74.4687C160.262 74.2537 160.313 74.0333 160.345 73.8099C160.384 73.5463 160.424 73.2367 160.457 72.8678L160.628 70.7991H163.924V75.2856H164.801V77.5322H163.99V76.0433H160.087V77.5388H159.283ZM160.602 75.2922H163.153V71.5567H161.38L161.248 72.8743C161.188 73.4278 161.116 73.9021 161.037 74.3106C160.974 74.6637 160.835 74.9988 160.628 75.2922H160.602Z" fill="white"/>
<path d="M167.959 76.1487C167.526 76.163 167.098 76.0494 166.728 75.8221C166.359 75.5948 166.065 75.2639 165.883 74.8706C165.687 74.4217 165.586 73.9372 165.586 73.4476C165.586 72.9579 165.687 72.4735 165.883 72.0245C166.063 71.6355 166.351 71.3063 166.713 71.0758C166.987 70.9037 167.295 70.7914 167.615 70.7462C167.936 70.701 168.262 70.7239 168.574 70.8134C168.885 70.903 169.173 71.0571 169.421 71.2658C169.668 71.4745 169.869 71.733 170.009 72.0245C170.205 72.4735 170.306 72.9579 170.306 73.4476C170.306 73.9372 170.205 74.4217 170.009 74.8706C169.822 75.2555 169.532 75.5814 169.172 75.8127C168.808 76.0369 168.387 76.1533 167.959 76.1487V76.1487ZM167.959 75.424C168.276 75.4356 168.587 75.3405 168.843 75.1539C169.082 74.9659 169.261 74.7116 169.357 74.4226C169.592 73.7847 169.592 73.084 169.357 72.4462C169.261 72.1572 169.082 71.9028 168.843 71.7149C168.584 71.5307 168.274 71.4318 167.956 71.4318C167.638 71.4318 167.328 71.5307 167.069 71.7149C166.833 71.9064 166.655 72.1595 166.555 72.4462C166.329 73.0857 166.329 73.7831 166.555 74.4226C166.655 74.7092 166.833 74.9624 167.069 75.1539C167.327 75.3414 167.641 75.4366 167.959 75.424V75.424Z" fill="white"/>
<path d="M171.559 78.0065V70.8057H172.337V71.6358H172.435C172.495 71.5435 172.574 71.4315 172.679 71.2866C172.805 71.1284 172.962 70.9982 173.141 70.9045C173.391 70.7824 173.667 70.7257 173.945 70.7398C174.358 70.7295 174.765 70.8443 175.112 71.0692C175.458 71.3007 175.732 71.6249 175.903 72.0047C176.099 72.4553 176.196 72.943 176.186 73.4344C176.196 73.93 176.099 74.4219 175.903 74.8772C175.733 75.2572 175.462 75.5832 175.119 75.8193C174.773 76.041 174.369 76.1556 173.958 76.1487C173.681 76.1619 173.404 76.1053 173.154 75.984C172.973 75.888 172.813 75.7557 172.686 75.5953C172.574 75.4503 172.495 75.3318 172.435 75.2395H172.363V78.0065H171.559ZM172.35 73.3948C172.343 73.752 172.403 74.1074 172.528 74.4424C172.625 74.7214 172.801 74.9663 173.035 75.1473C173.272 75.3191 173.56 75.4072 173.853 75.3976C174.156 75.4094 174.454 75.3164 174.697 75.1341C174.93 74.9428 175.107 74.6925 175.211 74.4094C175.328 74.0841 175.386 73.7405 175.382 73.3948C175.386 73.0555 175.328 72.7184 175.211 72.4C175.108 72.1202 174.927 71.8756 174.69 71.6951C174.443 71.5274 174.151 71.4377 173.853 71.4377C173.554 71.4377 173.262 71.5274 173.016 71.6951C172.788 71.8626 172.612 72.0909 172.508 72.3539C172.389 72.6966 172.335 73.0586 172.35 73.4212V73.3948Z" fill="white"/>
<path d="M179.542 76.1488C179.109 76.163 178.681 76.0494 178.311 75.8222C177.942 75.5949 177.648 75.2639 177.466 74.8707C177.27 74.4217 177.169 73.9373 177.169 73.4476C177.169 72.9579 177.27 72.4735 177.466 72.0246C177.646 71.6356 177.934 71.3064 178.296 71.0759C178.671 70.8467 179.103 70.73 179.542 70.7399C179.976 70.727 180.404 70.8419 180.774 71.0704C181.143 71.2988 181.437 71.6306 181.619 72.0246C181.814 72.4735 181.915 72.9579 181.915 73.4476C181.915 73.9373 181.814 74.4217 181.619 74.8707C181.434 75.2569 181.143 75.5833 180.782 75.8128C180.41 76.0428 179.979 76.1596 179.542 76.1488V76.1488ZM179.542 75.4241C179.859 75.4357 180.17 75.3405 180.426 75.154C180.665 74.9646 180.846 74.7109 180.946 74.4227C181.172 73.7832 181.172 73.0857 180.946 72.4462C180.846 72.158 180.665 71.9043 180.426 71.7149C180.175 71.5167 179.861 71.416 179.542 71.4316C179.221 71.4179 178.906 71.5183 178.652 71.7149C178.416 71.9064 178.238 72.1596 178.138 72.4462C177.912 73.0857 177.912 73.7832 178.138 74.4227C178.238 74.7093 178.416 74.9624 178.652 75.154C178.91 75.3405 179.224 75.4356 179.542 75.4241Z" fill="white"/>
<path d="M182.601 76.0433L184.73 73.408L182.601 70.8057H183.55L185.297 73.0391H185.739V70.8057H186.556V73.0127H186.978L188.725 70.7793H189.681L187.591 73.3553L189.707 75.9906H188.738L186.965 73.7374H186.556V75.9906H185.765V73.7374H185.35L183.563 75.9906L182.601 76.0433Z" fill="white"/>
<path d="M191.672 70.8057V76.0762H190.868V70.8057H191.672ZM194.369 73.0522V73.8033H191.481V73.0522H194.369ZM194.988 70.8057V76.0762H194.178V70.8057H194.988Z" fill="white"/>
<path d="M198.587 76.1487C198.154 76.163 197.726 76.0494 197.356 75.8221C196.987 75.5948 196.693 75.2639 196.51 74.8706C196.315 74.4216 196.214 73.9372 196.214 73.4475C196.214 72.9579 196.315 72.4734 196.51 72.0245C196.691 71.6355 196.979 71.3063 197.341 71.0758C197.719 70.8559 198.149 70.7401 198.587 70.7401C199.025 70.7401 199.455 70.8559 199.833 71.0758C200.195 71.3063 200.483 71.6355 200.664 72.0245C200.859 72.4734 200.96 72.9579 200.96 73.4475C200.96 73.9372 200.859 74.4216 200.664 74.8706C200.481 75.2639 200.187 75.5948 199.818 75.8221C199.449 76.0494 199.021 76.163 198.587 76.1487V76.1487ZM198.587 75.424C198.905 75.4345 199.218 75.3396 199.477 75.1539C199.713 74.9624 199.891 74.7092 199.991 74.4226C200.217 73.7831 200.217 73.0857 199.991 72.4461C199.891 72.1595 199.713 71.9064 199.477 71.7148C199.217 71.5302 198.906 71.4309 198.587 71.4309C198.268 71.4309 197.957 71.5302 197.697 71.7148C197.461 71.9064 197.283 72.1595 197.183 72.4461C196.957 73.0857 196.957 73.7831 197.183 74.4226C197.283 74.7092 197.461 74.9624 197.697 75.1539C197.956 75.3396 198.269 75.4345 198.587 75.424V75.424Z" fill="white"/>
<path d="M205.424 70.8058V71.5568H202.998V76.0434H202.188V70.7728L205.424 70.8058Z" fill="white"/>
<path d="M208.449 76.1487C208.013 76.1577 207.582 76.041 207.21 75.8127C206.85 75.5814 206.56 75.2555 206.373 74.8706C206.177 74.4217 206.076 73.9373 206.076 73.4476C206.076 72.9579 206.177 72.4735 206.373 72.0245C206.558 71.6365 206.848 71.3079 207.21 71.0758C207.587 70.8559 208.016 70.74 208.453 70.74C208.889 70.74 209.318 70.8559 209.695 71.0758C210.057 71.3064 210.345 71.6356 210.526 72.0245C210.722 72.4735 210.823 72.9579 210.823 73.4476C210.823 73.9373 210.722 74.4217 210.526 74.8706C210.344 75.2639 210.05 75.5948 209.68 75.8221C209.311 76.0494 208.883 76.163 208.449 76.1487V76.1487ZM208.449 75.424C208.768 75.4366 209.082 75.3414 209.339 75.1539C209.575 74.9624 209.753 74.7093 209.854 74.4226C210.079 73.7831 210.079 73.0857 209.854 72.4462C209.753 72.1596 209.575 71.9064 209.339 71.7149C209.08 71.5308 208.77 71.4318 208.453 71.4318C208.135 71.4318 207.825 71.5308 207.566 71.7149C207.328 71.9047 207.15 72.1584 207.052 72.4462C206.817 73.0841 206.817 73.7848 207.052 74.4226C207.15 74.7104 207.328 74.9641 207.566 75.1539C207.822 75.3405 208.133 75.4356 208.449 75.424V75.424Z" fill="white"/>
<path d="M214.198 77.5388V75.2922H214.633C214.738 75.1818 214.831 75.0603 214.91 74.9299C214.993 74.7838 215.059 74.6291 215.108 74.4687C215.177 74.2537 215.228 74.0333 215.26 73.8099C215.299 73.5463 215.339 73.2367 215.372 72.8678L215.543 70.7991H218.859V75.2856H219.67V77.5322H218.859V76.0433H214.989V77.5388H214.198ZM215.517 75.2922H218.042V71.5567H216.268L216.136 72.8743C216.077 73.4278 216.005 73.9021 215.919 74.3106C215.875 74.6602 215.753 74.9957 215.563 75.2922H215.517Z" fill="white"/>
<path d="M220.745 76.0433V70.7728H222.888C223.357 70.7531 223.82 70.8873 224.206 71.1549C224.364 71.2706 224.491 71.4227 224.577 71.5982C224.663 71.7737 224.706 71.9674 224.701 72.1629C224.71 72.299 224.689 72.4355 224.64 72.5629C224.591 72.6903 224.515 72.8056 224.417 72.9007C224.211 73.0818 223.961 73.2047 223.692 73.2565C223.893 73.2849 224.086 73.3544 224.259 73.4607C224.445 73.5705 224.601 73.7244 224.714 73.9087C224.832 74.108 224.894 74.3358 224.892 74.5675C224.896 74.8238 224.825 75.0757 224.687 75.2922C224.542 75.5101 224.339 75.6835 224.101 75.7929C223.815 75.9206 223.504 75.9835 223.191 75.9774L220.745 76.0433ZM221.497 73.0127H222.874C223.063 73.0167 223.251 72.9854 223.428 72.9205C223.57 72.8729 223.694 72.7833 223.784 72.6636C223.869 72.5469 223.913 72.4057 223.909 72.2617C223.912 72.1584 223.888 72.0563 223.839 71.9651C223.791 71.8739 223.72 71.7968 223.633 71.7412C223.404 71.6047 223.14 71.5404 222.874 71.5568H221.497V73.0127ZM221.497 75.3186H223.204C223.441 75.3368 223.676 75.2664 223.863 75.121C223.942 75.0555 224.005 74.9726 224.046 74.8789C224.087 74.7851 224.106 74.683 224.101 74.5807C224.11 74.4631 224.093 74.3448 224.052 74.2342C224.01 74.1237 223.945 74.0235 223.861 73.9407C223.777 73.8578 223.676 73.7944 223.565 73.7547C223.453 73.7151 223.335 73.7002 223.217 73.7111H221.497V75.3186Z" fill="white"/>
<path d="M226.942 74.8574L229.46 70.8057H230.39V76.0762H229.586V72.0245L227.074 76.0762H226.111V70.8057H226.922L226.942 74.8574Z" fill="white"/>
<path d="M231.537 76.0433L233.666 73.408L231.563 70.832H232.519L234.266 73.0654H234.682V70.832H235.486V73.0127H235.908L237.655 70.7793H238.637L236.554 73.3553L238.664 75.9906H237.694L235.921 73.7374H235.512V75.9906H234.682V73.7374H234.273L232.486 75.9906L231.537 76.0433Z" fill="white"/>
<path d="M241.781 76.1487C241.319 76.1647 240.861 76.0481 240.463 75.8127C240.094 75.5892 239.801 75.2613 239.619 74.8706C239.412 74.4299 239.311 73.9473 239.322 73.4607C239.312 72.9722 239.414 72.4878 239.619 72.0443C239.799 71.6533 240.084 71.3202 240.443 71.0824C240.813 70.8482 241.244 70.729 241.682 70.7398C241.958 70.7385 242.232 70.783 242.493 70.8716C242.763 70.966 243.01 71.1164 243.218 71.313C243.45 71.5409 243.628 71.8178 243.739 72.1233C243.879 72.5185 243.944 72.9363 243.93 73.3553V73.6716H239.896V73.0127H243.113C243.117 72.7396 243.058 72.4691 242.941 72.2221C242.83 71.9957 242.656 71.8059 242.44 71.6753C242.213 71.5341 241.95 71.4631 241.682 71.4711C241.388 71.4627 241.097 71.5456 240.852 71.7083C240.622 71.8639 240.438 72.0776 240.318 72.3276C240.191 72.5789 240.126 72.8565 240.126 73.1379V73.5991C240.118 73.9441 240.188 74.2865 240.331 74.6005C240.455 74.864 240.658 75.0826 240.911 75.2264C241.17 75.373 241.464 75.4459 241.761 75.4372C241.958 75.4413 242.154 75.4123 242.341 75.3515C242.51 75.2915 242.663 75.1948 242.79 75.0683C242.916 74.9418 243.013 74.7888 243.073 74.6203L243.851 74.8377C243.773 75.1014 243.63 75.3415 243.436 75.536C243.235 75.7394 242.992 75.8967 242.724 75.9972C242.421 76.1046 242.102 76.156 241.781 76.1487Z" fill="white"/>
<path d="M245.987 70.8057V76.0762H245.183V70.8057H245.987ZM248.69 73.0522V73.8033H245.796V73.0522H248.69ZM249.303 70.8057V76.0762H248.525V70.8057H249.303Z" fill="white"/>
<path d="M251.578 74.8574L254.103 70.8057H255.032V76.0762H254.228V72.0245L251.716 76.0762H250.773V70.8057H251.578V74.8574Z" fill="white"/>
<path d="M256.166 76.0434L257.649 73.4081H258.526L257.036 76.0434H256.166ZM259.66 76.0434V71.5436H258.269C258.003 71.528 257.74 71.6048 257.524 71.761C257.435 71.833 257.365 71.9246 257.318 72.0287C257.271 72.1328 257.249 72.2465 257.254 72.3606C257.249 72.4702 257.268 72.5797 257.31 72.681C257.352 72.7824 257.416 72.8732 257.498 72.9469C257.684 73.0972 257.918 73.1745 258.157 73.1643H259.851V73.9154H258.157C257.841 73.9227 257.527 73.8573 257.241 73.7243C256.994 73.6088 256.788 73.4232 256.647 73.1907C256.503 72.9359 256.43 72.6468 256.436 72.354C256.428 72.0622 256.504 71.7741 256.654 71.5239C256.812 71.2796 257.042 71.0907 257.313 70.9836C257.621 70.8531 257.954 70.7902 258.289 70.7992H260.392V76.0697L259.66 76.0434Z" fill="white"/>
</g>
<defs>
<clipPath id="clip0_301_4531">
<rect width="140" height="145" fill="white"/>
</clipPath>
<clipPath id="clip1_301_4531">
<rect width="254" height="61" fill="white" transform="translate(159 17)"/>
</clipPath>
</defs>
</svg>
