<svg width="465" height="382" viewBox="0 0 465 382" fill="none" xmlns="http://www.w3.org/2000/svg">
<g clip-path="url(#clip0_16_879)">
<path fill-rule="evenodd" clip-rule="evenodd" d="M114.41 185.805C117.548 186.409 119.237 183.631 119.841 180.973L125.03 158.502C127.202 154.274 145.909 137.965 146.874 134.22C148.081 128.783 146.271 118.031 147.236 111.749C148.926 111.991 151.098 113.561 152.667 114.407C154.96 115.736 155.925 116.581 156.167 119.602C156.408 123.467 155.925 128.058 156.408 131.803C156.77 134.703 156.891 136.757 160.029 136.757C165.58 136.877 163.77 129.266 163.77 122.984C163.529 109.816 166.184 112.957 144.943 101.118C139.754 98.2182 134.564 102.447 131.064 104.984C130.099 109.816 130.944 123.588 130.944 129.266C131.064 136.877 131.547 134.582 121.892 144.73C117.548 149.321 116.823 150.287 115.858 154.395C114.168 162.368 111.151 172.637 110.548 180.248C110.065 183.51 110.668 185.201 114.41 185.805ZM151.943 169.738C154.839 173.845 159.667 183.751 161.839 184.839C164.132 185.926 166.908 185.322 168.115 183.631C169.442 181.698 168.718 178.798 166.908 175.778L146.995 141.71L139.633 148.958L151.943 169.738ZM112.841 139.535C114.651 141.106 117.185 139.777 118.634 138.569C119.841 137.723 125.754 131.32 126.599 129.991C127.926 127.696 127.323 125.763 127.202 119.602C125.633 120.206 114.289 131.199 112.961 133.374C111.875 135.065 111.031 137.844 112.841 139.535ZM131.306 83.6003C119.841 87.3454 124.668 104.5 135.288 99.1847C138.788 97.4934 142.891 94.8356 142.167 88.9159C141.443 83.4795 136.254 82.0298 131.306 83.6003Z" fill="#003B6A"/>
<path fill-rule="evenodd" clip-rule="evenodd" d="M132.875 171.55H142.771L152.426 243.431H123.944L132.875 171.55Z" fill="#4CB278"/>
<path fill-rule="evenodd" clip-rule="evenodd" d="M96.5482 171.55H105.72L78.3248 237.149H52.3774L96.5482 171.55Z" fill="#4CB278"/>
<path fill-rule="evenodd" clip-rule="evenodd" d="M82.0661 153.428L90.7555 156.69L41.2746 209.001L16.6548 199.698L82.0661 153.428Z" fill="#4CB278"/>
<path fill-rule="evenodd" clip-rule="evenodd" d="M75.4282 133.132L82.3073 138.931L19.7924 171.55L0 154.999L75.4282 133.132Z" fill="#F8CB7B"/>
<path fill-rule="evenodd" clip-rule="evenodd" d="M76.6352 110.662L80.4971 118.152C58.7737 119.843 36.9297 121.535 15.2064 123.226L4.34473 101.963L76.6352 110.662Z" fill="#F8CB7B"/>
<path fill-rule="evenodd" clip-rule="evenodd" d="M85.8074 87.8286L86.7729 96.2853L23.6545 77.439L21.1201 53.5187L85.8074 87.8286Z" fill="#F8CB7B"/>
<path fill-rule="evenodd" clip-rule="evenodd" d="M103.065 71.3985L101.013 79.1303L51.291 40.7129L57.2046 18.4839L103.065 71.3985Z" fill="#F8CB7B"/>
<path fill-rule="evenodd" clip-rule="evenodd" d="M125.271 61.7337L120.565 67.5326L93.7725 16.1885L107.289 0L125.271 61.7337Z" fill="#ED6F4F"/>
<path fill-rule="evenodd" clip-rule="evenodd" d="M150.012 62.5793L144.098 65.7204L139.512 13.8931L156.287 5.07397L150.012 62.5793Z" fill="#ED6F4F"/>
<path fill-rule="evenodd" clip-rule="evenodd" d="M172.338 72.2442L166.545 72.7274L179.821 29.3567L196.355 27.6654L172.338 72.2442Z" fill="#ED6F4F"/>
<path fill-rule="evenodd" clip-rule="evenodd" d="M188.631 91.2112L183.683 89.5199L210.957 58.5927L225.319 63.425L188.631 91.2112Z" fill="#ED6F4F"/>
<path fill-rule="evenodd" clip-rule="evenodd" d="M198.406 113.923L195.51 110.662L227.25 99.3054L235.577 108.487L198.406 113.923Z" fill="#ED6F4F"/>
<path fill-rule="evenodd" clip-rule="evenodd" d="M181.269 171.55H171.373L201.303 243.431H229.664L181.269 171.55Z" fill="#4CB278"/>
<path d="M0 296.104V275.567H8.20659C9.7755 275.567 10.9824 275.808 11.9478 276.292C12.9133 276.775 13.7581 277.379 14.2409 278.104C14.7236 278.949 14.965 279.795 14.965 280.882C14.965 281.728 14.8443 282.332 14.4822 283.057C14.1202 283.782 13.7581 284.144 13.1547 284.507C12.5513 284.869 11.9478 285.111 11.2237 285.352V285.594C11.9478 285.594 12.7926 285.836 13.3961 286.198C14.1202 286.56 14.6029 287.165 15.0856 287.889C15.5684 288.614 15.6891 289.46 15.6891 290.547C15.6891 291.634 15.4477 292.601 14.8443 293.447C14.2409 294.292 13.5167 295.017 12.4306 295.5C11.3444 295.984 10.1376 296.225 8.56865 296.225H0V296.104ZM4.34467 284.144H7.60317C8.20659 284.144 8.68933 284.023 9.17207 283.782C9.65481 283.54 10.0169 283.299 10.2582 282.936C10.4996 282.574 10.6203 282.09 10.6203 281.486C10.6203 280.762 10.3789 280.158 9.7755 279.674C9.29276 279.191 8.44796 278.949 7.48248 278.949H4.34467V284.144ZM4.34467 292.601H7.84454C9.05139 292.601 9.89618 292.359 10.4996 291.876C11.103 291.393 11.3444 290.789 11.3444 290.064C11.3444 289.46 11.2237 288.977 10.9824 288.614C10.741 288.131 10.2582 287.889 9.7755 287.648C9.29276 287.406 8.68933 287.285 7.96522 287.285H4.34467V292.601Z" fill="white"/>
<path d="M36.8091 282.815H32.4644C32.3437 282.211 32.223 281.728 31.9817 281.245C31.7403 280.762 31.3782 280.399 31.0162 280.158C30.6541 279.795 30.1714 279.554 29.6886 279.433C29.2059 279.312 28.6025 279.191 27.9991 279.191C26.9129 279.191 26.0681 279.433 25.2233 280.037C24.3785 280.52 23.7751 281.366 23.413 282.332C22.9303 283.299 22.8096 284.507 22.8096 285.956C22.8096 287.406 23.051 288.614 23.413 289.702C23.7751 290.789 24.4992 291.393 25.2233 291.997C26.0681 292.48 26.9129 292.722 27.9991 292.722C28.6025 292.722 29.0852 292.601 29.568 292.48C30.0507 292.359 30.5334 292.118 30.8955 291.755C31.2576 291.514 31.6196 291.151 31.861 290.668C32.1023 290.185 32.3437 289.702 32.3437 289.218H36.6884C36.5677 290.185 36.3263 291.03 35.8436 291.997C35.3608 292.843 34.7574 293.688 34.0333 294.292C33.3092 295.017 32.3437 295.5 31.3782 295.863C30.2921 296.225 29.2059 296.467 27.8784 296.467C26.0681 296.467 24.3785 296.104 22.9303 295.259C21.4821 294.413 20.3959 293.205 19.5511 291.635C18.7063 290.064 18.3442 288.131 18.3442 285.956C18.3442 283.661 18.7063 281.849 19.5511 280.278C20.3959 278.708 21.4821 277.5 22.9303 276.654C24.3785 275.808 25.9474 275.446 27.7577 275.446C28.9645 275.446 30.0507 275.567 31.0162 275.929C31.9817 276.292 32.9471 276.775 33.6713 277.379C34.3954 277.983 35.1195 278.829 35.6022 279.674C36.3263 280.52 36.6884 281.607 36.8091 282.815Z" fill="white"/>
<path d="M39.9468 296.104V275.567H53.8256V279.191H44.2914V284.144H53.1015V287.769H44.2914V292.722H53.8256V296.346H39.9468V296.104Z" fill="white"/>
<path d="M57.2046 296.104V275.567H65.2905C66.8594 275.567 68.1869 275.808 69.2731 276.412C70.3593 277.016 71.2041 277.862 71.8075 278.829C72.4109 279.916 72.6523 281.124 72.6523 282.453C72.6523 283.782 72.4109 284.99 71.8075 286.077C71.2041 287.164 70.3593 287.889 69.2731 288.493C68.1869 289.097 66.8594 289.339 65.2905 289.339H60.101V285.836H64.5664C65.4112 285.836 66.1353 285.715 66.618 285.352C67.2215 285.111 67.5835 284.627 67.8249 284.144C68.0663 283.661 68.1869 283.057 68.1869 282.332C68.1869 281.607 68.0663 281.003 67.8249 280.52C67.5835 280.037 67.1008 279.553 66.618 279.312C66.0146 279.07 65.4112 278.829 64.5664 278.829H61.5493V295.863H57.2046V296.104Z" fill="white"/>
<path d="M94.4967 285.836C94.4967 288.131 94.014 289.943 93.1692 291.514C92.3244 293.084 91.1175 294.292 89.6693 295.138C88.2211 295.984 86.5315 296.346 84.7212 296.346C82.9109 296.346 81.2213 295.984 79.7731 295.138C78.3249 294.292 77.1181 293.084 76.2733 291.514C75.4285 289.943 75.0664 288.01 75.0664 285.836C75.0664 283.54 75.4285 281.728 76.2733 280.158C77.1181 278.587 78.2042 277.379 79.7731 276.533C81.2213 275.688 82.9109 275.325 84.7212 275.325C86.5315 275.325 88.2211 275.688 89.6693 276.533C91.1175 277.379 92.3244 278.587 93.1692 280.158C94.014 281.728 94.4967 283.54 94.4967 285.836ZM90.0314 285.836C90.0314 284.386 89.79 283.178 89.4279 282.211C88.9452 281.245 88.3418 280.399 87.6177 279.916C86.8935 279.433 85.9281 279.191 84.8419 279.191C83.7557 279.191 82.9109 279.433 82.0661 279.916C81.342 280.399 80.6179 281.245 80.2559 282.211C79.7731 283.178 79.6524 284.386 79.6524 285.836C79.6524 287.285 79.8938 288.493 80.2559 289.46C80.7386 290.426 81.342 291.272 82.0661 291.755C82.7903 292.239 83.7557 292.48 84.8419 292.48C85.9281 292.48 86.7729 292.239 87.6177 291.755C88.4625 291.272 89.0659 290.426 89.4279 289.46C89.79 288.493 90.0314 287.285 90.0314 285.836Z" fill="white"/>
<path d="M115.737 282.815H111.393C111.272 282.211 111.151 281.728 110.91 281.245C110.669 280.762 110.306 280.399 109.944 280.158C109.582 279.795 109.1 279.554 108.617 279.433C108.134 279.312 107.531 279.191 106.927 279.191C105.841 279.191 104.996 279.433 104.152 280.037C103.307 280.52 102.703 281.366 102.341 282.332C101.859 283.299 101.738 284.507 101.738 285.956C101.738 287.406 101.979 288.614 102.341 289.702C102.703 290.789 103.427 291.393 104.152 291.997C104.996 292.48 105.841 292.722 106.927 292.722C107.531 292.722 108.013 292.601 108.496 292.48C108.979 292.359 109.462 292.118 109.824 291.755C110.186 291.514 110.548 291.151 110.789 290.668C111.031 290.185 111.272 289.702 111.272 289.218H115.617C115.496 290.185 115.255 291.03 114.772 291.997C114.289 292.843 113.686 293.688 112.962 294.292C112.237 295.017 111.272 295.5 110.306 295.863C109.22 296.225 108.134 296.467 106.807 296.467C104.996 296.467 103.307 296.104 101.859 295.259C100.41 294.413 99.3241 293.205 98.4793 291.635C97.6345 290.064 97.2725 288.131 97.2725 285.956C97.2725 283.661 97.6345 281.849 98.4793 280.278C99.3241 278.708 100.41 277.5 101.859 276.654C103.307 275.808 104.876 275.446 106.686 275.446C107.893 275.446 108.979 275.567 109.944 275.929C110.91 276.292 111.875 276.775 112.599 277.379C113.324 277.983 114.048 278.829 114.53 279.674C115.375 280.52 115.617 281.607 115.737 282.815Z" fill="white"/>
<path d="M137.098 282.815H132.753C132.633 282.211 132.512 281.728 132.271 281.245C132.029 280.762 131.667 280.399 131.305 280.158C130.943 279.795 130.46 279.554 129.978 279.433C129.495 279.312 128.892 279.191 128.288 279.191C127.202 279.191 126.357 279.433 125.512 280.037C124.668 280.52 124.064 281.366 123.702 282.332C123.219 283.299 123.099 284.507 123.099 285.956C123.099 287.406 123.34 288.614 123.702 289.702C124.064 290.789 124.788 291.393 125.512 291.997C126.357 292.48 127.202 292.722 128.288 292.722C128.892 292.722 129.374 292.601 129.857 292.48C130.34 292.359 130.822 292.118 131.185 291.755C131.547 291.514 131.909 291.151 132.15 290.668C132.391 290.185 132.633 289.702 132.633 289.218H136.977C136.857 290.185 136.615 291.03 136.133 291.997C135.65 292.843 135.046 293.688 134.322 294.292C133.598 295.017 132.633 295.5 131.667 295.863C130.581 296.225 129.495 296.467 128.167 296.467C126.357 296.467 124.668 296.104 123.219 295.259C121.771 294.413 120.685 293.205 119.84 291.635C118.995 290.064 118.633 288.131 118.633 285.956C118.633 283.661 118.995 281.849 119.84 280.278C120.685 278.708 121.771 277.5 123.219 276.654C124.668 275.808 126.236 275.446 128.047 275.446C129.254 275.446 130.34 275.567 131.305 275.929C132.271 276.292 133.236 276.775 133.96 277.379C134.684 277.983 135.409 278.829 135.891 279.674C136.615 280.52 136.857 281.607 137.098 282.815Z" fill="white"/>
<path d="M140.115 275.567H144.46V288.493H144.581L153.511 275.567H157.373V296.104H153.029V283.178H152.908L143.977 296.104H140.236V275.567H140.115Z" fill="white"/>
<path d="M160.994 275.567H165.339V288.493H165.46L174.39 275.567H178.252V296.104H173.787V283.178H173.666L164.735 296.104H160.994V275.567ZM171.494 270.13H174.511C174.511 271.338 174.028 272.305 173.183 273.03C172.339 273.755 171.132 274.117 169.563 274.117C167.994 274.117 166.787 273.755 165.942 273.03C165.097 272.305 164.615 271.338 164.615 270.13H167.632C167.632 270.614 167.753 270.976 168.115 271.338C168.477 271.701 168.959 271.943 169.683 271.943C170.408 271.943 170.89 271.822 171.252 271.459C171.373 271.097 171.494 270.614 171.494 270.13Z" fill="white"/>
<path d="M199.854 282.815H195.51C195.389 282.211 195.268 281.728 195.027 281.245C194.786 280.762 194.424 280.399 194.062 280.158C193.7 279.795 193.217 279.554 192.734 279.433C192.251 279.312 191.648 279.191 191.044 279.191C189.958 279.191 189.113 279.433 188.269 280.037C187.424 280.52 186.82 281.366 186.458 282.332C185.976 283.299 185.855 284.507 185.855 285.956C185.855 287.406 186.096 288.614 186.458 289.702C186.82 290.789 187.545 291.393 188.269 291.997C189.113 292.48 189.958 292.722 191.044 292.722C191.648 292.722 192.131 292.601 192.613 292.48C193.096 292.359 193.579 292.118 193.941 291.755C194.303 291.514 194.665 291.151 194.906 290.668C195.148 290.185 195.389 289.702 195.389 289.218H199.734C199.613 290.185 199.372 291.03 198.889 291.997C198.406 292.843 197.803 293.688 197.079 294.292C196.355 295.017 195.389 295.5 194.424 295.863C193.337 296.225 192.251 296.467 190.924 296.467C189.113 296.467 187.424 296.104 185.976 295.259C184.527 294.413 183.441 293.205 182.597 291.635C181.752 290.064 181.39 288.131 181.39 285.956C181.39 283.661 181.752 281.849 182.597 280.278C183.441 278.708 184.527 277.5 185.976 276.654C187.424 275.808 188.993 275.446 190.803 275.446C192.01 275.446 193.096 275.567 194.062 275.929C195.027 276.292 195.993 276.775 196.717 277.379C197.441 277.983 198.165 278.829 198.648 279.674C199.372 280.52 199.734 281.607 199.854 282.815Z" fill="white"/>
<path d="M215.303 296.104L208.665 287.285H207.337V296.104H202.993V275.567H207.337V283.782H208.303L215.785 275.567H221.337L212.406 285.352L220.733 296.104H215.303Z" fill="white"/>
<path d="M223.75 275.567H228.095V288.493H228.216L237.147 275.567H241.008V296.104H236.543V283.178H236.422L227.492 296.104H223.75V275.567Z" fill="white"/>
<path d="M244.508 275.567H248.853V288.493H248.974L257.904 275.567H261.766V296.104H257.422V283.178H257.301L248.37 296.104H244.629V275.567H244.508ZM255.129 270.13H258.146C258.146 271.338 257.663 272.305 256.818 273.03C255.973 273.755 254.767 274.117 253.198 274.117C251.629 274.117 250.422 273.755 249.577 273.03C248.732 272.305 248.25 271.338 248.25 270.13H251.267C251.267 270.614 251.387 270.976 251.749 271.338C252.111 271.701 252.594 271.943 253.318 271.943C254.042 271.943 254.525 271.822 254.887 271.459C255.008 271.097 255.129 270.614 255.129 270.13Z" fill="white"/>
<path d="M17.4994 311.447V331.985H13.1548V314.951H4.8275V331.985H0.603516V311.447H17.4994Z" fill="white"/>
<path d="M21.6025 332.106V311.568H35.4813V315.192H25.9472V320.145H34.7572V323.77H25.9472V328.723H35.4813V332.347H21.6025V332.106Z" fill="white"/>
<path d="M37.7744 337.059V328.602H39.2226C39.7054 328.24 40.1881 327.756 40.5502 327.152C40.9122 326.548 41.2743 325.703 41.5157 324.495C41.757 323.407 41.9984 321.958 42.1191 320.145L42.7225 311.447H56.3599V328.602H58.653V337.059H54.429V332.106H41.9984V337.059H37.7744ZM44.2914 328.602H52.2566V315.071H46.7051L46.3431 320.145C46.2224 321.474 46.1017 322.682 45.8603 323.77C45.619 324.857 45.3776 325.703 45.1362 326.548C44.8948 327.394 44.5328 327.998 44.2914 328.602Z" fill="white"/>
<path d="M64.6872 332.106H59.9805L67.1009 311.568H72.6524L79.7728 332.106H75.0661L69.8767 316.28H69.756L64.6872 332.106ZM64.4458 324.011H75.4282V327.394H64.4458V324.011Z" fill="white"/>
<path d="M95.9451 311.447V315.071H86.6523V332.106H82.3076V311.568H95.9451V311.447Z" fill="white"/>
<path d="M116.703 321.837C116.703 324.132 116.22 325.944 115.375 327.515C114.53 329.085 113.324 330.294 111.875 331.139C110.427 331.985 108.738 332.347 106.927 332.347C105.117 332.347 103.427 331.985 101.979 331.139C100.531 330.294 99.3241 329.085 98.4793 327.515C97.6345 325.944 97.2725 324.011 97.2725 321.837C97.2725 319.541 97.6345 317.729 98.4793 316.159C99.3241 314.588 100.41 313.38 101.979 312.535C103.427 311.689 105.117 311.326 106.927 311.326C108.738 311.326 110.427 311.689 111.875 312.535C113.324 313.38 114.53 314.588 115.375 316.159C116.341 317.609 116.703 319.541 116.703 321.837ZM112.358 321.837C112.358 320.387 112.117 319.179 111.755 318.213C111.272 317.246 110.669 316.4 109.944 315.917C109.22 315.434 108.255 315.192 107.169 315.192C106.082 315.192 105.238 315.434 104.393 315.917C103.669 316.4 102.945 317.246 102.583 318.213C102.1 319.179 101.979 320.387 101.979 321.837C101.979 323.287 102.221 324.495 102.583 325.461C103.065 326.428 103.669 327.273 104.393 327.757C105.117 328.24 106.082 328.481 107.169 328.481C108.255 328.481 109.1 328.24 109.944 327.757C110.789 327.273 111.393 326.428 111.755 325.461C112.117 324.495 112.358 323.287 112.358 321.837Z" fill="white"/>
<path d="M133.599 311.447V315.071H124.306V332.106H119.961V311.568H133.599V311.447Z" fill="white"/>
<path d="M136.375 311.447H140.719V324.374H140.84L149.771 311.447H153.632V331.985H149.288V319.058H149.167L140.236 331.985H136.375V311.447Z" fill="white"/>
<path d="M157.977 311.447H162.201V318.092C162.201 318.937 162.322 319.541 162.563 320.025C162.804 320.508 163.287 320.87 163.891 321.112C164.494 321.354 165.218 321.474 166.184 321.474C166.546 321.474 166.908 321.474 167.27 321.474C167.632 321.474 168.115 321.474 168.597 321.354C169.08 321.354 169.442 321.233 169.925 321.233C170.408 321.233 170.649 321.112 171.011 320.991V324.374C170.77 324.495 170.408 324.495 169.925 324.615C169.563 324.736 169.08 324.736 168.597 324.857C168.115 324.857 167.632 324.978 167.27 324.978C166.787 324.978 166.425 324.978 166.184 324.978C164.494 324.978 163.046 324.736 161.839 324.253C160.632 323.77 159.667 323.045 159.063 322.078C158.339 321.112 158.098 319.783 158.098 318.212V311.447H157.977ZM170.287 311.447H174.511V331.985H170.287V311.447Z" fill="white"/>
<path d="M178.735 332.106V311.568H192.614V315.192H183.08V320.145H191.89V323.77H183.08V328.723H192.614V332.347H178.735V332.106Z" fill="white"/>
<path d="M214.216 318.696H209.872C209.751 318.092 209.63 317.609 209.389 317.125C209.148 316.642 208.785 316.28 208.423 316.038C208.061 315.676 207.579 315.434 207.096 315.313C206.613 315.192 206.01 315.071 205.406 315.071C204.32 315.071 203.475 315.313 202.631 315.917C201.786 316.4 201.182 317.246 200.82 318.213C200.337 319.179 200.217 320.387 200.217 321.837C200.217 323.287 200.458 324.495 200.82 325.582C201.182 326.669 201.906 327.273 202.631 327.877C203.475 328.361 204.32 328.602 205.406 328.602C206.01 328.602 206.492 328.481 206.975 328.361C207.458 328.24 207.941 327.998 208.303 327.636C208.665 327.394 209.027 327.032 209.268 326.548C209.51 326.065 209.751 325.582 209.751 325.099H214.096C213.975 326.065 213.734 326.911 213.251 327.877C212.768 328.723 212.165 329.569 211.441 330.173C210.716 330.898 209.751 331.381 208.785 331.743C207.699 332.106 206.613 332.347 205.286 332.347C203.475 332.347 201.786 331.985 200.338 331.139C198.889 330.294 197.803 329.085 196.958 327.515C196.114 325.944 195.751 324.011 195.751 321.837C195.751 319.541 196.114 317.729 196.958 316.159C197.803 314.588 198.889 313.38 200.338 312.535C201.786 311.689 203.355 311.326 205.165 311.326C206.372 311.326 207.458 311.447 208.423 311.81C209.389 312.172 210.354 312.655 211.078 313.259C211.803 313.863 212.527 314.709 213.009 315.555C213.734 316.4 214.096 317.488 214.216 318.696Z" fill="white"/>
<path d="M229.664 332.106L223.026 323.287H221.699V332.106H217.354V311.568H221.699V319.783H222.664L230.147 311.568H235.698L226.888 321.354L235.215 332.106H229.664Z" fill="white"/>
<path d="M238.112 311.447H242.457V324.374H242.578L251.508 311.447H255.37V331.985H251.026V319.058H250.905L241.974 331.985H238.233V311.447H238.112Z" fill="white"/>
<path d="M258.87 311.447H263.215V324.374H263.335L272.266 311.447H276.128V331.985H271.783V319.058H271.542L262.611 331.985H258.87V311.447ZM269.49 306.132H272.508C272.508 307.34 272.025 308.306 271.18 309.031C270.335 309.756 269.128 310.118 267.559 310.118C265.991 310.118 264.784 309.756 263.939 309.031C263.094 308.306 262.611 307.34 262.611 306.132H265.628C265.628 306.615 265.749 306.977 266.111 307.34C266.473 307.702 266.956 307.944 267.68 307.944C268.404 307.944 268.887 307.823 269.249 307.46C269.37 306.977 269.49 306.615 269.49 306.132Z" fill="white"/>
<path d="M294.351 313.743H298.937C300.627 313.743 302.075 314.105 303.282 314.83C304.61 315.555 305.575 316.521 306.299 317.729C307.023 318.937 307.385 320.508 307.385 322.199C307.385 323.891 307.023 325.34 306.299 326.548C305.575 327.756 304.61 328.723 303.282 329.448C301.954 330.173 300.506 330.414 298.937 330.414H294.351C292.662 330.414 291.213 330.052 290.007 329.448C288.679 328.723 287.714 327.877 286.989 326.548C286.265 325.219 285.903 323.891 285.903 322.199C285.903 320.508 286.265 319.058 286.989 317.729C287.714 316.521 288.679 315.434 290.007 314.83C291.213 314.105 292.662 313.743 294.351 313.743ZM294.351 317.367C293.506 317.367 292.662 317.488 292.058 317.85C291.334 318.212 290.851 318.696 290.489 319.421C290.127 320.145 289.886 320.991 289.886 322.078C289.886 323.045 290.127 323.891 290.489 324.615C290.851 325.34 291.455 325.823 292.058 326.186C292.662 326.548 293.506 326.669 294.351 326.669H298.937C299.782 326.669 300.627 326.548 301.23 326.186C301.834 325.823 302.437 325.34 302.799 324.615C303.161 323.891 303.403 323.045 303.403 322.078C303.403 320.991 303.161 320.145 302.799 319.421C302.437 318.696 301.954 318.212 301.23 317.85C300.506 317.488 299.782 317.367 298.937 317.367H294.351ZM298.696 311.085V332.83H294.593V311.085H298.696Z" fill="white"/>
<path d="M310.644 332.106V311.568H324.523V315.192H314.989V320.145H323.799V323.77H314.989V328.723H324.523V332.347H310.644V332.106Z" fill="white"/>
<path d="M346.125 318.696H341.781C341.66 318.092 341.539 317.609 341.298 317.125C341.057 316.642 340.695 316.28 340.333 316.038C339.971 315.676 339.488 315.434 339.005 315.313C338.522 315.192 337.919 315.071 337.315 315.071C336.229 315.071 335.385 315.313 334.54 315.917C333.695 316.4 333.091 317.246 332.729 318.213C332.247 319.179 332.126 320.387 332.126 321.837C332.126 323.287 332.367 324.495 332.729 325.582C333.091 326.669 333.816 327.273 334.54 327.877C335.385 328.361 336.229 328.602 337.315 328.602C337.919 328.602 338.402 328.481 338.884 328.361C339.367 328.24 339.85 327.998 340.212 327.636C340.574 327.394 340.936 327.032 341.177 326.548C341.419 326.065 341.66 325.582 341.66 325.099H346.005C345.884 326.065 345.643 326.911 345.16 327.877C344.677 328.723 344.074 329.569 343.35 330.173C342.626 330.777 341.66 331.381 340.695 331.743C339.608 332.106 338.522 332.347 337.195 332.347C335.384 332.347 333.695 331.985 332.247 331.139C330.798 330.294 329.712 329.085 328.867 327.515C328.023 325.944 327.661 324.011 327.661 321.837C327.661 319.541 328.023 317.729 328.867 316.159C329.712 314.588 330.798 313.38 332.247 312.535C333.695 311.689 335.264 311.326 337.074 311.326C338.281 311.326 339.367 311.447 340.333 311.81C341.298 312.172 342.264 312.655 342.988 313.259C343.712 313.863 344.436 314.709 344.919 315.555C345.643 316.4 346.005 317.488 346.125 318.696Z" fill="white"/>
<path d="M348.418 315.071V311.447H365.314V315.071H359.039V332.106H354.694V315.071H348.418Z" fill="white"/>
<path d="M368.09 311.447H372.435V324.374H372.555L381.486 311.447H385.348V331.985H381.003V319.058H380.882L371.952 331.985H368.09V311.447Z" fill="white"/>
<path d="M388.848 332.106V311.568H397.054C398.623 311.568 399.83 311.81 400.795 312.293C401.761 312.776 402.606 313.38 403.089 314.105C403.571 314.951 403.813 315.796 403.813 316.884C403.813 317.729 403.692 318.333 403.33 319.058C402.968 319.662 402.606 320.145 402.002 320.508C401.399 320.87 400.795 321.112 400.071 321.354V321.595C400.795 321.595 401.64 321.837 402.244 322.199C402.968 322.562 403.451 323.166 403.933 323.891C404.416 324.615 404.537 325.461 404.537 326.548C404.537 327.636 404.295 328.602 403.692 329.448C403.089 330.294 402.364 331.018 401.278 331.502C400.192 331.985 398.985 332.226 397.416 332.226H388.848V332.106ZM393.192 320.145H396.451C397.054 320.145 397.537 320.025 398.02 319.783C398.502 319.541 398.865 319.3 399.106 318.937C399.347 318.575 399.468 318.092 399.468 317.488C399.468 316.763 399.227 316.159 398.623 315.676C398.14 315.192 397.296 314.951 396.33 314.951H393.072V320.145H393.192ZM393.192 328.481H396.692C397.899 328.481 398.744 328.24 399.347 327.756C399.951 327.273 400.192 326.669 400.192 325.944C400.192 325.34 400.071 324.857 399.83 324.495C399.589 324.132 399.227 323.77 398.623 323.528C398.02 323.287 397.537 323.166 396.813 323.166H393.192V328.481Z" fill="white"/>
<path d="M411.054 332.106H406.347L413.468 311.568H419.019L426.14 332.106H421.433L416.243 316.28H416.123L411.054 332.106ZM410.813 324.011H421.795V327.394H410.813V324.011Z" fill="white"/>
<path d="M427.588 332.106V328.602H428.191C428.915 328.602 429.519 328.24 430.002 327.756C430.484 327.273 430.846 326.428 431.088 325.34C431.329 324.253 431.45 322.682 431.571 320.75L431.933 311.568H445.932V332.106H441.708V315.071H436.036L435.674 322.199C435.553 324.495 435.312 326.428 434.829 327.877C434.346 329.327 433.743 330.414 432.777 331.139C431.812 331.864 430.484 332.226 428.915 332.226H427.588V332.106Z" fill="white"/>
<path d="M452.207 319.058H457.155C458.845 319.058 460.173 319.3 461.379 319.904C462.586 320.387 463.431 321.112 464.155 322.078C464.879 323.045 465.121 324.132 465.121 325.461C465.121 326.79 464.759 327.877 464.155 328.844C463.552 329.81 462.586 330.656 461.379 331.139C460.173 331.622 458.845 331.985 457.155 331.985H449.432V311.447H453.776V328.602H457.155C457.88 328.602 458.604 328.481 459.086 328.119C459.569 327.877 460.052 327.515 460.293 327.032C460.535 326.548 460.655 326.065 460.655 325.461C460.655 324.615 460.414 324.011 459.69 323.407C458.966 322.803 458.121 322.562 457.035 322.562H452.087V319.058H452.207Z" fill="white"/>
<path d="M3.01707 347.569V357.113H1.56885V347.569H3.01707ZM6.75831 355.18L10.1375 347.569H11.5857L7.48242 357.113H6.27557L2.17227 347.569H3.49981L6.75831 355.18ZM10.4996 357.113V347.569H12.0685V357.113H10.4996Z" fill="white"/>
<path d="M18.7061 357.355C17.7406 357.355 17.0165 357.113 16.2924 356.751C15.5683 356.388 15.0855 355.784 14.7235 355.059C14.3614 354.335 14.2407 353.489 14.2407 352.522C14.2407 351.556 14.3614 350.71 14.7235 349.865C15.0855 349.14 15.5683 348.536 16.2924 348.052C16.8958 347.569 17.7406 347.448 18.5854 347.448C19.0681 347.448 19.5509 347.569 20.0336 347.69C20.5164 347.811 20.9991 348.173 21.3612 348.536C21.7232 348.898 22.0853 349.381 22.3266 349.985C22.568 350.589 22.6887 351.314 22.6887 352.281V352.885H15.3269V351.556H21.2405C21.2405 351.073 21.1198 350.589 20.8784 350.106C20.637 349.623 20.3957 349.381 19.9129 349.14C19.5509 348.898 19.0681 348.777 18.4647 348.777C17.8613 348.777 17.3785 348.898 16.8958 349.261C16.4131 349.502 16.1717 349.985 15.9303 350.348C15.6889 350.831 15.5683 351.314 15.5683 351.798V352.643C15.5683 353.368 15.6889 353.972 15.9303 354.455C16.1717 354.939 16.5337 355.301 17.0165 355.543C17.4992 355.784 17.982 355.905 18.5854 355.905C18.9474 355.905 19.3095 355.905 19.6716 355.784C20.0336 355.663 20.275 355.543 20.5164 355.301C20.7577 355.059 20.8784 354.818 20.9991 354.455L22.4473 354.818C22.3266 355.301 22.0853 355.784 21.7232 356.147C21.3611 356.509 20.8784 356.751 20.3957 356.992C20.0336 357.234 19.4302 357.355 18.7061 357.355Z" fill="white"/>
<path d="M24.1372 357.113L27.9991 352.281L24.1372 347.569H25.8268L28.9646 351.677H29.8094V347.569H31.3783V351.677H32.1024L35.2402 347.569H36.9298L33.0679 352.281L36.9298 357.113H35.1196L31.8611 353.006H31.3783V357.113H29.9301V353.006H29.206L25.9475 357.113H24.1372Z" fill="white"/>
<path d="M39.2227 357.113V347.569H46.7051V357.113H45.2569V348.898H40.6709V357.113H39.2227Z" fill="white"/>
<path d="M49.481 360.737V347.569H50.9292V349.14H51.0499C51.1705 349.019 51.2912 348.777 51.5326 348.536C51.774 348.294 52.0153 348.052 52.3774 347.811C52.7395 347.569 53.2222 347.448 53.8256 347.448C54.6704 347.448 55.3945 347.69 55.998 348.052C56.6014 348.415 57.0841 349.019 57.4462 349.744C57.8082 350.469 57.9289 351.314 57.9289 352.402C57.9289 353.368 57.8082 354.335 57.4462 355.059C57.0841 355.784 56.6014 356.388 55.998 356.751C55.3945 357.113 54.6704 357.355 53.8256 357.355C53.2222 357.355 52.7395 357.234 52.3774 356.992C52.0153 356.751 51.774 356.509 51.5326 356.268C51.2912 356.026 51.1705 355.784 51.0499 355.663H50.9292V360.737H49.481ZM50.9292 352.281C50.9292 353.006 51.0499 353.61 51.2912 354.214C51.5326 354.818 51.774 355.18 52.2567 355.543C52.6188 355.905 53.2222 356.026 53.7049 356.026C54.3084 356.026 54.7911 355.905 55.2738 355.543C55.6359 355.18 55.998 354.818 56.2393 354.214C56.4807 353.61 56.6014 353.006 56.6014 352.402C56.6014 351.677 56.4807 351.073 56.2393 350.589C55.998 349.985 55.7566 349.623 55.2738 349.261C54.9118 348.898 54.3084 348.777 53.7049 348.777C53.1015 348.777 52.6188 348.898 52.136 349.261C51.6533 349.623 51.4119 349.985 51.1706 350.469C51.0499 350.952 50.9292 351.556 50.9292 352.281Z" fill="white"/>
<path d="M64.2046 357.355C63.2391 357.355 62.515 357.113 61.7909 356.751C61.0668 356.388 60.5841 355.784 60.222 355.059C59.8599 354.335 59.7393 353.489 59.7393 352.522C59.7393 351.556 59.8599 350.71 60.222 349.865C60.5841 349.14 61.0668 348.536 61.7909 348.052C62.3943 347.569 63.2391 347.448 64.0839 347.448C64.5667 347.448 65.0494 347.569 65.5321 347.69C66.0149 347.811 66.4976 348.173 66.8597 348.536C67.2217 348.898 67.5838 349.381 67.8252 349.985C68.0665 350.589 68.1872 351.314 68.1872 352.281V352.885H60.8254V351.556H66.739C66.739 351.073 66.6183 350.589 66.3769 350.106C66.1356 349.623 65.8942 349.381 65.4115 349.14C65.0494 348.898 64.5667 348.777 63.9632 348.777C63.3598 348.777 62.8771 348.898 62.3943 349.261C61.9116 349.502 61.6702 349.985 61.4289 350.348C61.1875 350.831 61.0668 351.314 61.0668 351.798V352.643C61.0668 353.368 61.1875 353.972 61.4289 354.455C61.6702 354.939 62.0323 355.301 62.515 355.543C62.9978 355.784 63.4805 355.905 64.0839 355.905C64.446 355.905 64.808 355.905 65.1701 355.784C65.5321 355.663 65.7735 355.543 66.0149 355.301C66.2563 355.059 66.3769 354.818 66.4976 354.455L67.9459 354.818C67.8252 355.301 67.5838 355.784 67.2217 356.147C66.8597 356.509 66.3769 356.751 65.8942 356.992C65.4115 357.234 64.9287 357.355 64.2046 357.355Z" fill="white"/>
<path d="M69.394 359.892V355.784H70.2388C70.4802 355.543 70.6009 355.301 70.7216 355.18C70.8423 354.939 70.963 354.697 71.0836 354.335C71.2043 353.972 71.325 353.61 71.325 353.126C71.325 352.643 71.4457 352.039 71.5664 351.435L71.9284 347.69H77.9627V355.905H79.4109V360.013H77.9627V357.234H70.8423V360.013H69.394V359.892ZM71.9284 355.784H76.5145V348.898H73.256L73.0146 351.314C72.8939 352.281 72.7732 353.247 72.6525 353.972C72.5319 354.697 72.2905 355.301 71.9284 355.784Z" fill="white"/>
<path d="M82.9111 347.569V357.113H81.4629V347.569H82.9111ZM86.6524 355.18L90.0315 347.569H91.4798L87.3765 357.113H86.1696L82.0663 347.569H83.3939L86.6524 355.18ZM90.3936 357.113V347.569H91.8418V357.113H90.3936Z" fill="white"/>
<path d="M98.6001 357.355C97.6346 357.355 96.9105 357.113 96.1864 356.751C95.4623 356.388 94.9796 355.784 94.6175 355.059C94.2555 354.335 94.1348 353.489 94.1348 352.522C94.1348 351.556 94.2555 350.71 94.6175 349.865C94.9796 349.14 95.4623 348.536 96.1864 348.052C96.7898 347.569 97.6346 347.448 98.4794 347.448C98.9622 347.448 99.4449 347.569 99.9277 347.69C100.41 347.811 100.893 348.173 101.255 348.536C101.617 348.898 101.979 349.381 102.221 349.985C102.462 350.589 102.583 351.314 102.583 352.281V352.885H95.2209V351.556H101.135C101.135 351.073 101.014 350.589 100.772 350.106C100.531 349.623 100.29 349.381 99.807 349.14C99.4449 348.898 98.9622 348.777 98.3587 348.777C97.7553 348.777 97.2726 348.898 96.7898 349.261C96.3071 349.502 96.0657 349.985 95.8244 350.348C95.583 350.831 95.4623 351.314 95.4623 351.798V352.643C95.4623 353.368 95.583 353.972 95.8244 354.455C96.0657 354.939 96.4278 355.301 96.9105 355.543C97.3933 355.784 97.876 355.905 98.4794 355.905C98.8415 355.905 99.2035 355.905 99.5656 355.784C99.9277 355.663 100.169 355.543 100.41 355.301C100.652 355.059 100.772 354.818 100.893 354.455L102.341 354.818C102.221 355.301 101.979 355.784 101.617 356.147C101.255 356.509 100.772 356.751 100.29 356.992C99.807 357.234 99.3242 357.355 98.6001 357.355Z" fill="white"/>
<path d="M103.91 348.898V347.569H111.755V348.898H108.617V357.113H107.169V348.898H103.91Z" fill="white"/>
<path d="M115.375 347.569V357.113H113.927V347.569H115.375ZM120.324 351.677V353.006H115.013V351.677H120.324ZM121.41 347.569V357.113H119.962V347.569H121.41Z" fill="white"/>
<path d="M125.392 350.952H128.168C129.254 350.952 130.099 351.194 130.702 351.798C131.306 352.402 131.547 353.126 131.547 353.972C131.547 354.576 131.426 355.059 131.185 355.543C130.944 356.026 130.581 356.388 129.978 356.63C129.375 356.872 128.771 356.992 128.047 356.992H124.064V347.448H125.513V355.663H128.047C128.65 355.663 129.133 355.543 129.495 355.18C129.857 354.818 130.099 354.455 130.099 353.972C130.099 353.489 129.857 353.006 129.495 352.764C129.133 352.522 128.65 352.281 128.047 352.281H125.271V350.952H125.392ZM133.116 357.113V347.569H134.564V357.113H133.116Z" fill="white"/>
<path d="M138.426 347.569L140.719 351.435L143.012 347.569H144.702L141.564 352.402L144.702 357.234H143.012L140.719 353.489L138.426 357.234H136.736L139.753 352.402L136.736 347.569H138.426Z" fill="white"/>
<path d="M151.702 357.113V347.569H159.184V357.113H157.736V348.898H153.271V357.113H151.702Z" fill="white"/>
<path d="M161.96 360.737V347.569H163.408V349.14H163.529C163.65 349.019 163.77 348.777 164.012 348.536C164.253 348.294 164.494 348.052 164.856 347.811C165.218 347.569 165.701 347.448 166.305 347.448C167.149 347.448 167.874 347.69 168.477 348.052C169.08 348.415 169.563 349.019 169.925 349.744C170.287 350.469 170.408 351.314 170.408 352.402C170.408 353.368 170.287 354.335 169.925 355.059C169.563 355.784 169.08 356.388 168.477 356.751C167.874 357.113 167.149 357.355 166.305 357.355C165.701 357.355 165.218 357.234 164.856 356.992C164.494 356.751 164.253 356.509 164.012 356.268C163.77 356.026 163.65 355.784 163.529 355.663H163.408V360.737H161.96ZM163.408 352.281C163.408 353.006 163.529 353.61 163.77 354.214C164.012 354.818 164.253 355.18 164.736 355.543C165.098 355.905 165.701 356.026 166.184 356.026C166.787 356.026 167.27 355.905 167.753 355.543C168.115 355.18 168.477 354.818 168.718 354.214C168.96 353.61 169.08 353.006 169.08 352.402C169.08 351.677 168.96 351.073 168.718 350.589C168.477 349.985 168.236 349.623 167.753 349.261C167.391 348.898 166.787 348.777 166.184 348.777C165.581 348.777 165.098 348.898 164.615 349.261C164.132 349.623 163.891 349.985 163.65 350.469C163.529 350.952 163.408 351.556 163.408 352.281Z" fill="white"/>
<path d="M176.563 357.355C175.718 357.355 174.994 357.113 174.269 356.751C173.666 356.388 173.063 355.784 172.701 355.059C172.339 354.335 172.097 353.489 172.097 352.402C172.097 351.435 172.339 350.589 172.701 349.744C173.063 349.019 173.545 348.415 174.269 348.052C174.873 347.69 175.718 347.448 176.563 347.448C177.407 347.448 178.131 347.69 178.856 348.052C179.459 348.415 180.062 349.019 180.424 349.744C180.787 350.469 181.028 351.314 181.028 352.402C181.028 353.368 180.787 354.214 180.424 355.059C180.062 355.784 179.58 356.388 178.856 356.751C178.252 357.113 177.407 357.355 176.563 357.355ZM176.563 356.026C177.166 356.026 177.769 355.905 178.131 355.543C178.493 355.18 178.856 354.818 179.097 354.214C179.338 353.61 179.459 353.126 179.459 352.402C179.459 351.677 179.338 351.194 179.097 350.589C178.856 349.985 178.614 349.623 178.131 349.261C177.649 348.898 177.166 348.777 176.563 348.777C175.959 348.777 175.356 348.898 174.994 349.261C174.511 349.623 174.269 350.106 174.028 350.589C173.787 351.073 173.666 351.798 173.666 352.402C173.666 353.006 173.787 353.61 174.028 354.214C174.269 354.818 174.511 355.18 174.994 355.543C175.356 355.784 175.959 356.026 176.563 356.026Z" fill="white"/>
<path d="M187.183 357.355C186.218 357.355 185.494 357.113 184.769 356.751C184.045 356.388 183.563 355.784 183.201 355.059C182.838 354.335 182.718 353.489 182.718 352.522C182.718 351.556 182.838 350.71 183.201 349.865C183.563 349.14 184.045 348.536 184.769 348.052C185.373 347.569 186.218 347.448 187.062 347.448C187.545 347.448 188.028 347.569 188.511 347.69C188.993 347.811 189.476 348.173 189.838 348.536C190.2 348.898 190.562 349.381 190.804 349.985C191.045 350.589 191.166 351.314 191.166 352.281V352.885H183.804V351.556H189.718C189.718 351.073 189.597 350.589 189.355 350.106C189.114 349.623 188.873 349.381 188.39 349.14C188.028 348.898 187.545 348.777 186.942 348.777C186.338 348.777 185.856 348.898 185.373 349.261C184.89 349.502 184.649 349.985 184.407 350.348C184.166 350.831 184.045 351.314 184.045 351.798V352.643C184.045 353.368 184.166 353.972 184.407 354.455C184.649 354.939 185.011 355.301 185.494 355.543C185.976 355.784 186.459 355.905 187.062 355.905C187.424 355.905 187.787 355.905 188.149 355.784C188.511 355.663 188.752 355.543 188.993 355.301C189.235 355.059 189.355 354.818 189.476 354.455L190.924 354.818C190.804 355.301 190.562 355.784 190.2 356.147C189.838 356.509 189.355 356.751 188.873 356.992C188.39 357.234 187.907 357.355 187.183 357.355Z" fill="white"/>
<path d="M193.458 357.113V347.569H194.907V351.798H195.872L199.372 347.569H201.303L197.441 352.16L201.303 357.113H199.372L196.234 353.006H194.907V357.113H193.458Z" fill="white"/>
<path d="M202.269 348.898V347.569H210.113V348.898H206.975V357.113H205.527V348.898H202.269Z" fill="white"/>
<path d="M215.665 357.355C214.82 357.355 214.096 357.113 213.372 356.751C212.768 356.388 212.165 355.784 211.803 355.059C211.441 354.335 211.199 353.489 211.199 352.402C211.199 351.435 211.441 350.589 211.803 349.744C212.165 349.019 212.647 348.415 213.372 348.052C213.975 347.69 214.82 347.448 215.665 347.448C216.509 347.448 217.233 347.69 217.958 348.052C218.561 348.415 219.164 349.019 219.526 349.744C219.889 350.469 220.13 351.314 220.13 352.402C220.13 353.368 219.889 354.214 219.526 355.059C219.164 355.784 218.682 356.388 217.958 356.751C217.233 357.113 216.509 357.355 215.665 357.355ZM215.665 356.026C216.268 356.026 216.871 355.905 217.233 355.543C217.596 355.18 217.958 354.818 218.199 354.214C218.44 353.61 218.561 353.126 218.561 352.402C218.561 351.677 218.44 351.194 218.199 350.589C217.958 349.985 217.716 349.623 217.233 349.261C216.751 348.898 216.268 348.777 215.665 348.777C215.061 348.777 214.458 348.898 214.096 349.261C213.613 349.623 213.372 350.106 213.13 350.589C212.889 351.073 212.768 351.798 212.768 352.402C212.768 353.006 212.889 353.61 213.13 354.214C213.372 354.818 213.613 355.18 214.096 355.543C214.458 355.784 215.061 356.026 215.665 356.026Z" fill="white"/>
<path d="M222.302 357.113V347.569H226.164C227.25 347.569 227.974 347.811 228.578 348.294C229.181 348.777 229.543 349.381 229.543 350.106C229.543 350.71 229.423 351.193 229.061 351.435C228.699 351.798 228.216 351.918 227.733 352.039C228.095 352.039 228.457 352.16 228.819 352.402C229.181 352.643 229.423 352.885 229.664 353.247C229.905 353.61 230.026 353.972 230.026 354.576C230.026 355.059 229.905 355.543 229.664 355.905C229.423 356.267 229.061 356.63 228.578 356.872C228.095 357.113 227.612 357.234 226.888 357.234H222.302V357.113ZM223.63 351.556H226.164C226.526 351.556 226.888 351.556 227.13 351.435C227.371 351.314 227.612 351.193 227.733 350.952C227.854 350.71 227.974 350.469 227.974 350.227C227.974 349.865 227.854 349.502 227.492 349.261C227.13 349.019 226.647 348.898 226.043 348.898H223.509V351.556H223.63ZM223.63 355.784H226.768C227.25 355.784 227.733 355.663 227.974 355.422C228.216 355.18 228.457 354.818 228.457 354.455C228.457 353.972 228.337 353.61 227.974 353.247C227.733 353.006 227.25 352.764 226.768 352.764H223.63V355.784Z" fill="white"/>
<path d="M237.026 357.113V347.569H244.508V357.113H243.06V348.898H238.474V357.113H237.026Z" fill="white"/>
<path d="M251.267 357.355C250.422 357.355 249.698 357.113 248.974 356.751C248.249 356.388 247.767 355.784 247.405 355.059C247.043 354.335 246.801 353.489 246.801 352.402C246.801 351.435 247.043 350.589 247.405 349.744C247.767 349.019 248.249 348.415 248.974 348.052C249.577 347.69 250.422 347.448 251.267 347.448C252.111 347.448 252.836 347.69 253.56 348.052C254.163 348.415 254.766 349.019 255.129 349.744C255.491 350.469 255.732 351.314 255.732 352.402C255.732 353.368 255.491 354.214 255.129 355.059C254.766 355.784 254.284 356.388 253.56 356.751C252.836 357.113 252.111 357.355 251.267 357.355ZM251.267 356.026C251.87 356.026 252.473 355.905 252.836 355.543C253.318 355.18 253.56 354.818 253.801 354.214C254.042 353.61 254.163 353.126 254.163 352.402C254.163 351.677 254.042 351.194 253.801 350.589C253.56 349.985 253.318 349.623 252.836 349.261C252.353 348.898 251.87 348.777 251.267 348.777C250.663 348.777 250.06 348.898 249.698 349.261C249.215 349.623 248.974 350.106 248.732 350.589C248.491 351.073 248.37 351.798 248.37 352.402C248.37 353.006 248.491 353.61 248.732 354.214C248.974 354.818 249.215 355.18 249.698 355.543C250.06 355.784 250.543 356.026 251.267 356.026Z" fill="white"/>
<path d="M269.852 343.945L270.576 344.791C270.335 345.032 269.973 345.274 269.611 345.395C269.249 345.515 268.766 345.515 268.283 345.636C267.8 345.636 267.318 345.636 266.714 345.757C265.99 345.757 265.507 345.999 265.025 346.24C264.542 346.482 264.301 346.965 264.059 347.569C263.818 348.173 263.697 348.777 263.576 349.623H263.697C264.059 349.019 264.421 348.536 265.025 348.294C265.628 348.052 266.232 347.811 266.835 347.811C267.559 347.811 268.283 347.932 268.887 348.294C269.49 348.656 269.973 349.14 270.335 349.865C270.697 350.589 270.818 351.435 270.818 352.402C270.818 353.368 270.697 354.214 270.335 355.059C269.973 355.905 269.49 356.388 268.887 356.751C268.283 357.113 267.438 357.355 266.594 357.355C265.749 357.355 265.025 357.113 264.301 356.751C263.697 356.388 263.094 355.784 262.852 354.939C262.49 354.093 262.37 353.126 262.37 351.918V350.952C262.37 348.777 262.732 347.207 263.456 346.12C264.18 345.032 265.266 344.428 266.714 344.428C267.197 344.428 267.68 344.428 268.042 344.428C268.404 344.428 268.766 344.428 269.128 344.428C269.369 344.187 269.611 344.066 269.852 343.945ZM266.594 356.026C267.197 356.026 267.68 355.905 268.042 355.543C268.404 355.301 268.766 354.818 269.007 354.335C269.249 353.851 269.369 353.126 269.369 352.402C269.369 351.677 269.249 351.073 269.007 350.589C268.766 350.106 268.404 349.744 268.042 349.502C267.68 349.261 267.076 349.14 266.473 349.14C265.99 349.14 265.628 349.261 265.266 349.381C264.904 349.502 264.663 349.744 264.421 349.985C264.18 350.227 263.939 350.589 263.818 351.073C263.697 351.435 263.576 351.918 263.576 352.522C263.576 353.61 263.818 354.455 264.301 355.059C265.025 355.663 265.749 356.026 266.594 356.026Z" fill="white"/>
<path d="M277.093 357.355C276.128 357.355 275.404 357.113 274.68 356.751C273.955 356.388 273.473 355.784 273.111 355.059C272.749 354.335 272.628 353.489 272.628 352.522C272.628 351.556 272.749 350.71 273.111 349.865C273.473 349.14 273.955 348.536 274.68 348.052C275.283 347.569 276.128 347.448 276.973 347.448C277.455 347.448 277.938 347.569 278.421 347.69C278.904 347.811 279.386 348.173 279.748 348.536C280.11 348.898 280.472 349.381 280.714 349.985C280.955 350.589 281.076 351.314 281.076 352.281V352.885H273.714V351.556H279.628C279.628 351.073 279.507 350.589 279.266 350.106C279.024 349.623 278.783 349.381 278.3 349.14C277.938 348.898 277.455 348.777 276.852 348.777C276.248 348.777 275.766 348.898 275.283 349.261C274.8 349.502 274.559 349.985 274.318 350.348C274.076 350.831 273.955 351.314 273.955 351.798V352.643C273.955 353.368 274.076 353.972 274.318 354.455C274.559 354.939 274.921 355.301 275.404 355.543C275.886 355.784 276.369 355.905 276.973 355.905C277.335 355.905 277.697 355.905 278.059 355.784C278.421 355.663 278.662 355.543 278.904 355.301C279.145 355.059 279.266 354.818 279.386 354.455L280.835 354.818C280.714 355.301 280.472 355.784 280.11 356.147C279.748 356.509 279.266 356.751 278.783 356.992C278.421 357.234 277.817 357.355 277.093 357.355Z" fill="white"/>
<path d="M282.766 354.697H284.335C284.335 355.18 284.576 355.422 284.938 355.663C285.3 355.905 285.783 356.026 286.386 356.026C286.99 356.026 287.472 355.905 287.955 355.663C288.317 355.422 288.559 355.059 288.559 354.455C288.559 354.093 288.438 353.851 288.317 353.61C288.196 353.368 287.955 353.126 287.593 353.006C287.352 352.885 286.99 352.764 286.628 352.764H284.938V351.556H286.628C287.231 351.556 287.593 351.435 287.955 351.194C288.196 350.952 288.317 350.589 288.317 350.227C288.317 349.744 288.196 349.502 287.834 349.14C287.472 348.777 287.11 348.777 286.507 348.777C285.903 348.777 285.421 348.898 285.059 349.14C284.697 349.381 284.455 349.744 284.455 350.106H282.886C282.886 349.623 283.007 349.14 283.369 348.777C283.61 348.415 284.093 348.052 284.576 347.811C285.059 347.569 285.662 347.448 286.386 347.448C287.11 347.448 287.593 347.569 288.196 347.811C288.679 348.052 289.041 348.415 289.403 348.777C289.645 349.14 289.765 349.623 289.765 350.106C289.765 350.589 289.645 351.073 289.283 351.435C288.921 351.798 288.559 352.039 288.196 352.16V352.281C288.559 352.281 288.921 352.402 289.162 352.643C289.403 352.885 289.645 353.126 289.765 353.489C289.886 353.851 290.007 354.214 290.007 354.576C290.007 355.18 289.886 355.663 289.524 356.147C289.162 356.63 288.8 356.872 288.196 357.113C287.593 357.355 286.99 357.476 286.386 357.476C285.662 357.476 285.059 357.355 284.576 357.113C284.093 356.872 283.61 356.63 283.248 356.147C282.886 355.663 282.766 355.18 282.766 354.697Z" fill="white"/>
<path d="M295.92 357.355C295.076 357.355 294.352 357.113 293.627 356.751C293.024 356.388 292.421 355.784 292.059 355.059C291.696 354.335 291.455 353.489 291.455 352.402C291.455 351.435 291.696 350.589 292.059 349.744C292.421 349.019 292.903 348.415 293.627 348.052C294.231 347.69 295.076 347.448 295.92 347.448C296.765 347.448 297.489 347.69 298.213 348.052C298.817 348.415 299.42 349.019 299.782 349.744C300.144 350.469 300.386 351.314 300.386 352.402C300.386 353.368 300.144 354.214 299.782 355.059C299.42 355.784 298.938 356.388 298.213 356.751C297.489 357.113 296.765 357.355 295.92 357.355ZM295.92 356.026C296.524 356.026 297.127 355.905 297.489 355.543C297.972 355.18 298.213 354.818 298.455 354.214C298.696 353.61 298.817 353.126 298.817 352.402C298.817 351.677 298.696 351.194 298.455 350.589C298.213 349.985 297.972 349.623 297.489 349.261C297.007 348.898 296.524 348.777 295.92 348.777C295.317 348.777 294.714 348.898 294.352 349.261C293.869 349.623 293.627 350.106 293.386 350.589C293.145 351.073 293.024 351.798 293.024 352.402C293.024 353.006 293.145 353.61 293.386 354.214C293.627 354.818 293.869 355.18 294.352 355.543C294.834 355.905 295.317 356.026 295.92 356.026Z" fill="white"/>
<path d="M302.558 357.113V347.569H310.041V357.113H308.592V348.898H304.006V357.113H302.558Z" fill="white"/>
<path d="M315.592 357.355C314.989 357.355 314.385 357.234 313.902 356.992C313.42 356.751 313.058 356.388 312.696 356.026C312.454 355.543 312.213 355.059 312.213 354.455C312.213 353.851 312.334 353.489 312.575 353.126C312.816 352.764 313.058 352.522 313.42 352.281C313.782 352.039 314.144 351.918 314.627 351.798C315.109 351.677 315.471 351.677 315.954 351.556C316.558 351.435 317.04 351.435 317.402 351.435C317.764 351.435 318.006 351.314 318.247 351.194C318.368 351.073 318.488 350.952 318.488 350.71C318.488 350.106 318.368 349.623 318.006 349.261C317.644 348.898 317.161 348.777 316.437 348.777C315.713 348.777 315.23 348.898 314.747 349.261C314.385 349.623 314.023 349.865 313.902 350.227L312.454 349.744C312.696 349.14 313.058 348.657 313.42 348.415C313.782 348.052 314.265 347.811 314.747 347.69C315.23 347.569 315.713 347.448 316.195 347.448C316.558 347.448 316.799 347.448 317.282 347.569C317.764 347.69 318.126 347.811 318.488 348.052C318.851 348.294 319.213 348.657 319.454 349.019C319.695 349.502 319.816 350.106 319.816 350.831V357.113H318.368V355.784H318.247C318.126 356.026 318.006 356.268 317.764 356.509C317.523 356.751 317.161 356.992 316.799 357.113C316.678 357.234 316.195 357.355 315.592 357.355ZM315.833 356.026C316.437 356.026 316.92 355.905 317.282 355.663C317.644 355.422 318.006 355.18 318.247 354.818C318.489 354.455 318.609 354.093 318.609 353.731V352.402C318.489 352.522 318.368 352.522 318.247 352.643C318.126 352.764 317.764 352.764 317.523 352.764C317.282 352.764 317.04 352.885 316.678 352.885C316.437 352.885 316.195 352.885 316.075 353.006C315.713 353.006 315.351 353.126 314.989 353.247C314.627 353.368 314.385 353.489 314.144 353.731C313.902 353.972 313.782 354.214 313.782 354.576C313.782 355.059 314.023 355.422 314.385 355.784C314.747 355.905 315.23 356.026 315.833 356.026Z" fill="white"/>
<path d="M326.574 357.355C325.729 357.355 324.884 357.113 324.281 356.751C323.678 356.388 323.074 355.784 322.833 354.939C322.471 354.214 322.35 353.368 322.35 352.402C322.35 351.435 322.471 350.589 322.833 349.865C323.195 349.14 323.678 348.536 324.402 348.052C325.005 347.569 325.85 347.448 326.695 347.448C327.419 347.448 328.022 347.569 328.505 347.811C328.988 348.052 329.471 348.415 329.833 348.898C330.195 349.381 330.436 349.865 330.436 350.469H328.988C328.867 349.985 328.626 349.623 328.264 349.261C327.902 348.898 327.419 348.777 326.695 348.777C326.091 348.777 325.609 348.898 325.247 349.261C324.764 349.502 324.522 349.985 324.281 350.469C324.04 350.952 323.919 351.677 323.919 352.402C323.919 353.126 324.04 353.731 324.281 354.335C324.522 354.939 324.884 355.301 325.247 355.663C325.729 356.026 326.212 356.147 326.815 356.147C327.177 356.147 327.54 356.026 327.902 355.905C328.264 355.784 328.505 355.543 328.746 355.301C328.988 355.059 329.108 354.697 329.229 354.455H330.677C330.557 355.059 330.436 355.543 330.074 356.026C329.712 356.509 329.35 356.872 328.746 357.113C328.143 357.355 327.298 357.355 326.574 357.355Z" fill="white"/>
<path d="M333.936 347.569V357.113H332.488V347.569H333.936ZM338.884 351.677V353.006H333.574V351.677H338.884ZM340.091 347.569V357.113H338.643V347.569H340.091Z" fill="white"/>
<path d="M346.608 357.355C345.763 357.355 345.039 357.113 344.315 356.751C343.711 356.388 343.108 355.784 342.746 355.059C342.384 354.335 342.143 353.489 342.143 352.402C342.143 351.435 342.384 350.589 342.746 349.744C343.108 349.019 343.591 348.415 344.315 348.052C344.918 347.69 345.763 347.448 346.608 347.448C347.453 347.448 348.177 347.69 348.901 348.052C349.504 348.415 350.108 349.019 350.47 349.744C350.832 350.469 351.073 351.314 351.073 352.402C351.073 353.368 350.832 354.214 350.47 355.059C350.108 355.784 349.625 356.388 348.901 356.751C348.177 357.113 347.453 357.355 346.608 357.355ZM346.608 356.026C347.211 356.026 347.815 355.905 348.177 355.543C348.66 355.18 348.901 354.818 349.142 354.214C349.384 353.61 349.504 353.126 349.504 352.402C349.504 351.677 349.384 351.194 349.142 350.589C348.901 349.985 348.66 349.623 348.177 349.261C347.694 348.898 347.211 348.777 346.608 348.777C346.005 348.777 345.401 348.898 345.039 349.261C344.556 349.623 344.315 350.106 344.074 350.589C343.832 351.073 343.711 351.798 343.711 352.402C343.711 353.006 343.832 353.61 344.074 354.214C344.315 354.818 344.556 355.18 345.039 355.543C345.522 355.905 346.005 356.026 346.608 356.026Z" fill="white"/>
<path d="M357.108 357.355C356.263 357.355 355.418 357.113 354.815 356.751C354.211 356.388 353.608 355.784 353.367 354.939C353.004 354.214 352.884 353.368 352.884 352.402C352.884 351.435 353.004 350.589 353.367 349.865C353.729 349.14 354.211 348.536 354.935 348.052C355.539 347.569 356.384 347.448 357.228 347.448C357.953 347.448 358.556 347.569 359.039 347.811C359.521 348.052 360.004 348.415 360.366 348.898C360.728 349.381 360.97 349.865 360.97 350.469H359.521C359.401 349.985 359.159 349.623 358.797 349.261C358.435 348.898 357.953 348.777 357.228 348.777C356.625 348.777 356.142 348.898 355.78 349.261C355.297 349.502 355.056 349.985 354.815 350.469C354.573 350.952 354.453 351.677 354.453 352.402C354.453 353.126 354.573 353.731 354.815 354.335C355.056 354.939 355.418 355.301 355.78 355.663C356.263 356.026 356.746 356.147 357.349 356.147C357.711 356.147 358.073 356.026 358.435 355.905C358.797 355.784 359.039 355.543 359.28 355.301C359.521 355.059 359.642 354.697 359.763 354.455H361.211C361.09 355.059 360.97 355.543 360.608 356.026C360.246 356.509 359.884 356.872 359.28 357.113C358.677 357.355 357.832 357.355 357.108 357.355Z" fill="white"/>
<path d="M362.297 348.898V347.569H370.141V348.898H367.004V357.113H365.555V348.898H362.297Z" fill="white"/>
<path d="M373.762 354.939L378.348 347.569H380.037V357.113H378.589V349.744L374.003 357.113H372.313V347.569H373.762V354.939Z" fill="white"/>
<path d="M0.48291 381.154V377.047H1.32771C1.56908 376.805 1.68976 376.564 1.81045 376.443C1.93113 376.201 2.05182 375.959 2.1725 375.597C2.29319 375.235 2.41387 374.872 2.41387 374.389C2.53456 373.906 2.53456 373.302 2.65524 372.698L3.0173 368.953H9.05156V377.168H10.4998V381.275H9.05156V378.496H1.93113V381.275H0.48291V381.154ZM3.0173 377.047H7.60334V370.161H4.34484L4.10347 372.577C3.98278 373.543 3.86209 374.51 3.74141 375.235C3.62072 375.959 3.37935 376.564 3.0173 377.047Z" fill="white"/>
<path d="M16.4136 378.617C15.5688 378.617 14.8447 378.376 14.1206 378.013C13.5171 377.651 12.9137 377.047 12.5517 376.322C12.1896 375.597 11.9482 374.751 11.9482 373.664C11.9482 372.698 12.1896 371.852 12.5517 371.006C12.9137 370.281 13.3965 369.677 14.1206 369.315C14.724 368.953 15.5688 368.711 16.4136 368.711C17.2584 368.711 17.9825 368.953 18.7066 369.315C19.31 369.677 19.9135 370.281 20.2755 371.006C20.6376 371.731 20.8789 372.577 20.8789 373.664C20.8789 374.631 20.6376 375.476 20.2755 376.322C19.9135 377.047 19.4307 377.651 18.7066 378.013C17.9825 378.376 17.2584 378.617 16.4136 378.617ZM16.4136 377.288C17.017 377.288 17.6204 377.168 17.9825 376.805C18.3446 376.443 18.7066 376.08 18.948 375.476C19.1894 374.872 19.31 374.389 19.31 373.664C19.31 372.939 19.1894 372.456 18.948 371.852C18.7066 371.248 18.4652 370.886 17.9825 370.523C17.4998 370.161 17.017 370.04 16.4136 370.04C15.8102 370.04 15.2067 370.161 14.8447 370.523C14.3619 370.886 14.1206 371.369 13.8792 371.852C13.6378 372.335 13.5171 373.06 13.5171 373.664C13.5171 374.268 13.6378 374.872 13.8792 375.476C14.1206 376.08 14.3619 376.443 14.8447 376.805C15.2067 377.168 15.6895 377.288 16.4136 377.288Z" fill="white"/>
<path d="M23.0513 382V368.832H24.4995V370.402H24.6202C24.7409 370.281 24.8615 370.04 25.1029 369.798C25.3443 369.557 25.5857 369.315 25.9477 369.073C26.3098 368.832 26.7925 368.711 27.3959 368.711C28.2407 368.711 28.9648 368.953 29.5683 369.315C30.1717 369.677 30.6544 370.281 31.0165 371.006C31.3785 371.731 31.4992 372.577 31.4992 373.664C31.4992 374.631 31.3785 375.597 31.0165 376.322C30.6544 377.047 30.1717 377.651 29.5683 378.013C28.9648 378.376 28.2407 378.617 27.3959 378.617C26.7925 378.617 26.3098 378.497 25.9477 378.255C25.5857 378.013 25.3443 377.772 25.1029 377.53C24.8615 377.288 24.7409 377.047 24.6202 376.926H24.4995V382H23.0513ZM24.4995 373.664C24.4995 374.389 24.6202 374.993 24.8615 375.597C25.1029 376.201 25.3443 376.564 25.827 376.926C26.1891 377.288 26.7925 377.409 27.2753 377.409C27.8787 377.409 28.3614 377.288 28.8442 376.926C29.2062 376.564 29.5683 376.201 29.8096 375.597C30.051 374.993 30.1717 374.389 30.1717 373.785C30.1717 373.06 30.051 372.456 29.8096 371.973C29.5683 371.369 29.3269 371.006 28.8442 370.644C28.4821 370.281 27.8787 370.161 27.2753 370.161C26.6718 370.161 26.1891 370.281 25.7063 370.644C25.2236 371.006 24.9822 371.369 24.7409 371.852C24.4995 372.335 24.4995 372.939 24.4995 373.664Z" fill="white"/>
<path d="M37.6538 378.617C36.809 378.617 36.0849 378.376 35.3608 378.013C34.7574 377.651 34.154 377.047 33.7919 376.322C33.4298 375.597 33.1885 374.751 33.1885 373.664C33.1885 372.698 33.4298 371.852 33.7919 371.006C34.154 370.281 34.6367 369.677 35.3608 369.315C35.9642 368.953 36.809 368.711 37.6538 368.711C38.4986 368.711 39.2227 368.953 39.9468 369.315C40.5503 369.677 41.1537 370.281 41.5158 371.006C41.8778 371.731 42.1192 372.577 42.1192 373.664C42.1192 374.631 41.8778 375.476 41.5158 376.322C41.1537 377.047 40.671 377.651 39.9468 378.013C39.2227 378.376 38.4986 378.617 37.6538 378.617ZM37.6538 377.288C38.2573 377.288 38.8607 377.168 39.2227 376.805C39.5848 376.443 39.9468 376.08 40.1882 375.476C40.4296 374.872 40.5503 374.389 40.5503 373.664C40.5503 372.939 40.4296 372.456 40.1882 371.852C39.9468 371.248 39.7055 370.886 39.2227 370.523C38.74 370.161 38.2573 370.04 37.6538 370.04C37.0504 370.04 36.447 370.161 36.0849 370.523C35.6022 370.886 35.3608 371.369 35.1194 371.852C34.8781 372.335 34.7574 373.06 34.7574 373.664C34.7574 374.268 34.8781 374.872 35.1194 375.476C35.3608 376.08 35.6022 376.443 36.0849 376.805C36.447 377.168 36.9297 377.288 37.6538 377.288Z" fill="white"/>
<path d="M43.2051 378.376L47.067 373.543L43.2051 368.832H44.8947L48.0325 372.939H48.8773V368.832H50.3255V372.939H51.0496L54.1874 368.832H55.877L52.0151 373.543L55.877 378.376H54.0667L50.8082 374.268H50.0841V378.376H48.6359V374.268H48.2739L45.0154 378.376H43.2051Z" fill="white"/>
<path d="M59.8598 368.832V378.376H58.4116V368.832H59.8598ZM64.8079 372.939V374.268H59.4978V372.939H64.8079ZM65.8941 368.832V378.376H64.4459V368.832H65.8941Z" fill="white"/>
<path d="M72.4107 378.617C71.5659 378.617 70.8418 378.376 70.1176 378.013C69.5142 377.651 68.9108 377.047 68.5487 376.322C68.1867 375.597 67.9453 374.751 67.9453 373.664C67.9453 372.698 68.1867 371.852 68.5487 371.006C68.9108 370.281 69.3935 369.677 70.1176 369.315C70.7211 368.953 71.5659 368.711 72.4107 368.711C73.2555 368.711 73.9796 368.953 74.7037 369.315C75.3071 369.677 75.9105 370.281 76.2726 371.006C76.6347 371.731 76.876 372.577 76.876 373.664C76.876 374.631 76.6347 375.476 76.2726 376.322C75.9105 377.047 75.4278 377.651 74.7037 378.013C74.1003 378.376 73.3761 378.617 72.4107 378.617ZM72.4107 377.288C73.0141 377.288 73.6175 377.168 73.9796 376.805C74.3416 376.443 74.7037 376.08 74.9451 375.476C75.1864 374.872 75.3071 374.389 75.3071 373.664C75.3071 372.939 75.1864 372.456 74.9451 371.852C74.7037 371.248 74.4623 370.886 73.9796 370.523C73.4968 370.161 73.0141 370.04 72.4107 370.04C71.8072 370.04 71.2038 370.161 70.8418 370.523C70.359 370.886 70.1176 371.369 69.8763 371.852C69.6349 372.335 69.5142 373.06 69.5142 373.664C69.5142 374.268 69.6349 374.872 69.8763 375.476C70.1176 376.08 70.359 376.443 70.8418 376.805C71.3245 377.168 71.8072 377.288 72.4107 377.288Z" fill="white"/>
<path d="M84.9624 368.832V370.161H80.497V378.376H79.0488V368.832H84.9624Z" fill="white"/>
<path d="M90.5137 378.617C89.6689 378.617 88.9448 378.376 88.2207 378.013C87.6172 377.651 87.0138 377.047 86.6518 376.322C86.2897 375.597 86.0483 374.751 86.0483 373.664C86.0483 372.698 86.2897 371.852 86.6518 371.006C87.0138 370.281 87.4966 369.677 88.2207 369.315C88.8241 368.953 89.6689 368.711 90.5137 368.711C91.3585 368.711 92.0826 368.953 92.8067 369.315C93.4101 369.677 94.0136 370.281 94.3756 371.006C94.7377 371.731 94.979 372.577 94.979 373.664C94.979 374.631 94.7377 375.476 94.3756 376.322C94.0136 377.047 93.5308 377.651 92.8067 378.013C92.2033 378.376 91.3585 378.617 90.5137 378.617ZM90.5137 377.288C91.1171 377.288 91.7205 377.168 92.0826 376.805C92.4447 376.443 92.8067 376.08 93.0481 375.476C93.2895 374.872 93.4101 374.389 93.4101 373.664C93.4101 372.939 93.2895 372.456 93.0481 371.852C92.8067 371.248 92.5653 370.886 92.0826 370.523C91.5999 370.161 91.1171 370.04 90.5137 370.04C89.9103 370.04 89.3068 370.161 88.9448 370.523C88.462 370.886 88.2207 371.369 87.9793 371.852C87.7379 372.335 87.6172 373.06 87.6172 373.664C87.6172 374.268 87.7379 374.872 87.9793 375.476C88.2207 376.08 88.462 376.443 88.9448 376.805C89.3068 377.168 89.9103 377.288 90.5137 377.288Z" fill="white"/>
<path d="M101.013 381.154V377.047H101.858C102.099 376.805 102.22 376.564 102.341 376.443C102.461 376.201 102.582 375.959 102.703 375.597C102.823 375.235 102.944 374.872 102.944 374.389C102.944 373.906 103.065 373.302 103.186 372.698L103.548 368.953H109.582V377.168H111.03V381.275H109.582V378.496H102.461V381.275H101.013V381.154ZM103.548 377.047H108.134V370.161H104.875L104.634 372.577C104.513 373.543 104.392 374.51 104.272 375.235C104.151 375.959 103.91 376.564 103.548 377.047Z" fill="white"/>
<path d="M113.082 378.376V368.832H116.944C118.03 368.832 118.754 369.073 119.358 369.557C119.961 370.04 120.323 370.644 120.323 371.369C120.323 371.973 120.202 372.456 119.84 372.698C119.478 373.06 118.996 373.181 118.513 373.302C118.875 373.302 119.237 373.422 119.599 373.664C119.961 373.906 120.202 374.147 120.444 374.51C120.685 374.872 120.806 375.235 120.806 375.839C120.806 376.322 120.685 376.805 120.444 377.168C120.202 377.53 119.84 377.892 119.358 378.134C118.875 378.376 118.392 378.496 117.668 378.496H113.082V378.376ZM114.41 372.818H116.944C117.306 372.818 117.668 372.818 117.909 372.698C118.151 372.577 118.392 372.456 118.513 372.214C118.634 371.973 118.754 371.731 118.754 371.49C118.754 371.127 118.634 370.765 118.271 370.523C117.909 370.281 117.427 370.161 116.823 370.161H114.289V372.818H114.41ZM114.41 377.047H117.547C118.03 377.047 118.513 376.926 118.754 376.684C118.996 376.443 119.237 376.08 119.237 375.718C119.237 375.235 119.116 374.872 118.754 374.51C118.513 374.268 118.03 374.027 117.547 374.027H114.41V377.047Z" fill="white"/>
<path d="M124.426 376.201L129.012 368.832H130.702V378.376H129.254V371.006L124.668 378.376H122.978V368.832H124.426V376.201Z" fill="white"/>
<path d="M132.753 378.376L136.615 373.543L132.753 368.832H134.443L137.581 372.939H138.426V368.832H139.874V372.939H140.598L143.736 368.832H145.425L141.563 373.543L145.425 378.376H143.615L140.357 374.268H139.632V378.376H138.184V374.268H137.46L134.202 378.376H132.753Z" fill="white"/>
<path d="M151.581 378.617C150.615 378.617 149.891 378.376 149.167 378.013C148.443 377.651 147.96 377.047 147.598 376.322C147.236 375.597 147.115 374.751 147.115 373.785C147.115 372.818 147.236 371.973 147.598 371.127C147.96 370.402 148.443 369.798 149.167 369.315C149.77 368.832 150.615 368.711 151.46 368.711C151.943 368.711 152.425 368.832 152.908 368.953C153.391 369.073 153.874 369.436 154.236 369.798C154.598 370.161 154.96 370.644 155.201 371.248C155.443 371.852 155.563 372.577 155.563 373.543V374.147H148.201V372.818H154.115C154.115 372.335 153.994 371.852 153.753 371.369C153.512 370.885 153.27 370.644 152.787 370.402C152.425 370.161 151.943 370.04 151.339 370.04C150.736 370.04 150.253 370.161 149.77 370.523C149.288 370.765 149.046 371.248 148.805 371.61C148.563 372.094 148.443 372.577 148.443 373.06V373.906C148.443 374.631 148.563 375.235 148.805 375.718C149.046 376.201 149.408 376.564 149.891 376.805C150.374 377.047 150.856 377.168 151.46 377.168C151.822 377.168 152.184 377.168 152.546 377.047C152.908 376.926 153.149 376.805 153.391 376.564C153.632 376.322 153.753 376.08 153.874 375.718L155.322 376.08C155.201 376.564 154.96 377.047 154.598 377.409C154.236 377.772 153.753 378.013 153.27 378.255C152.787 378.497 152.184 378.617 151.581 378.617Z" fill="white"/>
<path d="M159.184 368.832V378.376H157.735V368.832H159.184ZM164.132 372.939V374.268H158.822V372.939H164.132ZM165.339 368.832V378.376H163.89V368.832H165.339Z" fill="white"/>
<path d="M169.442 376.201L174.028 368.832H175.717V378.376H174.269V371.006L169.683 378.376H167.994V368.832H169.442V376.201Z" fill="white"/>
<path d="M177.89 378.376L180.666 373.543H182.235L179.459 378.376H177.89ZM184.286 378.376V370.161H181.752C181.149 370.161 180.666 370.281 180.425 370.523C180.062 370.765 179.942 371.127 179.942 371.61C179.942 372.094 180.062 372.456 180.425 372.698C180.666 372.939 181.149 373.06 181.631 373.06H184.769V374.389H181.631C181.028 374.389 180.425 374.268 179.942 374.027C179.459 373.785 179.097 373.422 178.856 373.06C178.614 372.577 178.494 372.094 178.494 371.49C178.494 370.885 178.614 370.402 178.856 369.919C179.097 369.436 179.459 369.194 179.942 368.953C180.425 368.711 181.028 368.59 181.752 368.59H185.735V378.134H184.286V378.376Z" fill="white"/>
</g>
<defs>
<clipPath id="clip0_16_879">
<rect width="465" height="382" fill="white"/>
</clipPath>
</defs>
</svg>
